M48
; DRILL file {KiCad (6.0.10-0)} date Tuesday, January 03, 2023 at 03:39:11 PM
; FORMAT={-:-/ absolute / metric / decimal}
; #@! TF.CreationDate,2023-01-03T15:39:11-08:00
; #@! TF.GenerationSoftware,Kicad,Pcbnew,(6.0.10-0)
; #@! TF.FileFunction,Plated,1,2,PTH
FMAT,2
METRIC
; #@! TA.AperFunction,Plated,PTH,ComponentDrill
T1C1.000
; #@! TA.AperFunction,Plated,PTH,ComponentDrill
T2C1.200
; #@! TA.AperFunction,Plated,PTH,ComponentDrill
T3C1.397
; #@! TA.AperFunction,Plated,PTH,ComponentDrill
T4C1.905
; #@! TA.AperFunction,Plated,PTH,ComponentDrill
T5C2.032
; #@! TA.AperFunction,Plated,PTH,ComponentDrill
T6C3.175
%
G90
G05
T1
X41.402Y-66.04
X41.402Y-68.58
X123.19Y-70.612
X123.19Y-73.152
X125.73Y-70.612
X125.73Y-73.152
X128.27Y-70.612
X128.27Y-73.152
X130.81Y-70.612
X130.81Y-73.152
X132.461Y-82.55
X132.461Y-87.63
X132.461Y-102.87
X132.461Y-107.95
X132.461Y-123.698
X132.461Y-128.778
X132.461Y-144.78
X132.461Y-149.86
X133.35Y-70.612
X133.35Y-73.152
X135.89Y-70.612
X135.89Y-73.152
X138.43Y-70.612
X138.43Y-73.152
X140.97Y-70.612
X140.97Y-73.152
X143.51Y-70.612
X143.51Y-73.152
X146.05Y-70.612
X146.05Y-73.152
X148.59Y-70.612
X148.59Y-73.152
X150.368Y-82.296
X150.368Y-87.376
X150.368Y-101.854
X150.368Y-106.934
X150.495Y-123.698
X150.495Y-128.778
X150.495Y-144.78
X150.495Y-149.86
X151.13Y-70.612
X151.13Y-73.152
X153.67Y-70.612
X153.67Y-73.152
X156.21Y-70.612
X156.21Y-73.152
X158.75Y-70.612
X158.75Y-73.152
X161.29Y-70.612
X161.29Y-73.152
X163.83Y-70.612
X163.83Y-73.152
X164.592Y-84.582
X164.592Y-142.748
X166.37Y-70.612
X166.37Y-73.152
X167.132Y-84.582
X167.132Y-142.748
X168.91Y-70.612
X168.91Y-73.152
X169.672Y-84.582
X169.672Y-142.748
X171.45Y-70.612
X171.45Y-73.152
X172.212Y-84.582
X172.212Y-142.748
X174.752Y-84.582
X174.752Y-142.748
X177.292Y-84.582
X177.292Y-89.662
X177.292Y-92.202
X177.292Y-94.742
X177.292Y-97.282
X177.292Y-142.748
X177.419Y-102.362
X177.419Y-104.902
X177.419Y-107.442
X177.419Y-109.982
X177.419Y-117.602
X177.419Y-120.142
X177.419Y-122.682
X177.419Y-125.222
X177.419Y-130.302
X177.419Y-132.842
X177.419Y-135.382
X177.419Y-137.922
X179.832Y-89.662
X179.832Y-92.202
X179.832Y-94.742
X179.832Y-97.282
X179.959Y-102.362
X179.959Y-104.902
X179.959Y-107.442
X179.959Y-109.982
X179.959Y-117.602
X179.959Y-120.142
X179.959Y-122.682
X179.959Y-125.222
X179.959Y-130.302
X179.959Y-132.842
X179.959Y-135.382
X179.959Y-137.922
X182.372Y-89.662
X182.372Y-92.202
X182.372Y-94.742
X182.372Y-97.282
X182.499Y-102.362
X182.499Y-104.902
X182.499Y-107.442
X182.499Y-109.982
X182.499Y-117.602
X182.499Y-120.142
X182.499Y-122.682
X182.499Y-125.222
X182.499Y-130.302
X182.499Y-132.842
X182.499Y-135.382
X182.499Y-137.922
X216.027Y-130.81
X218.567Y-130.81
X218.567Y-148.59
X221.107Y-130.81
X221.107Y-148.59
X223.647Y-130.81
X223.647Y-148.59
X226.187Y-130.81
X226.187Y-148.59
X228.727Y-130.81
T2
X239.712Y-73.66
X243.213Y-73.66
T3
X222.25Y-74.612
X232.41Y-74.612
T4
X243.332Y-147.066
X243.332Y-152.146
T5
X125.857Y-80.01
X125.857Y-90.17
X125.857Y-100.33
X125.857Y-110.49
X125.857Y-121.158
X125.857Y-131.318
X125.857Y-142.24
X125.857Y-152.4
X143.764Y-79.756
X143.764Y-89.916
X143.764Y-99.314
X143.764Y-109.474
X143.891Y-121.158
X143.891Y-131.318
X143.891Y-142.24
X143.891Y-152.4
T6
X42.164Y-107.696
X42.164Y-117.856
T0
M30
