G04 #@! TF.GenerationSoftware,KiCad,Pcbnew,(6.0.10-0)*
G04 #@! TF.CreationDate,2023-01-03T15:37:51-08:00*
G04 #@! TF.ProjectId,lasagna-motherboard,6c617361-676e-4612-9d6d-6f7468657262,v0.1*
G04 #@! TF.SameCoordinates,Original*
G04 #@! TF.FileFunction,Profile,NP*
%FSLAX46Y46*%
G04 Gerber Fmt 4.6, Leading zero omitted, Abs format (unit mm)*
G04 Created by KiCad (PCBNEW (6.0.10-0)) date 2023-01-03 15:37:51*
%MOMM*%
%LPD*%
G01*
G04 APERTURE LIST*
G04 #@! TA.AperFunction,Profile*
%ADD10C,0.100000*%
G04 #@! TD*
G04 APERTURE END LIST*
D10*
X265684000Y-147574000D02*
X260604000Y-147574000D01*
X265684000Y-157988000D02*
X265684000Y-147574000D01*
X265430000Y-66548000D02*
X260604000Y-66548000D01*
X38354000Y-161036000D02*
X260604000Y-161036000D01*
X38354000Y-80518000D02*
X35306000Y-80518000D01*
X265430000Y-76708000D02*
X265430000Y-66548000D01*
X38354000Y-144018000D02*
X38354000Y-161036000D01*
X260604000Y-66548000D02*
X260604000Y-63246000D01*
X260604000Y-117348000D02*
X265684000Y-117348000D01*
X35306000Y-144018000D02*
X38354000Y-144018000D01*
X265684000Y-117348000D02*
X265684000Y-107188000D01*
X260604000Y-107188000D02*
X260604000Y-76708000D01*
X265684000Y-107188000D02*
X260604000Y-107188000D01*
X38354000Y-63246000D02*
X38354000Y-80518000D01*
X260604000Y-157988000D02*
X265684000Y-157988000D01*
X260604000Y-76708000D02*
X265430000Y-76708000D01*
X260604000Y-161036000D02*
X260604000Y-157988000D01*
X35306000Y-80518000D02*
X35306000Y-144018000D01*
X260604000Y-147574000D02*
X260604000Y-117348000D01*
X260604000Y-63246000D02*
X38354000Y-63246000D01*
M02*
