%TF.GenerationSoftware,KiCad,Pcbnew,(6.0.10-0)*%
%TF.CreationDate,2023-01-03T15:39:17-08:00*%
%TF.ProjectId,lasagna-motherboard,6c617361-676e-4612-9d6d-6f7468657262,v0.1*%
%TF.SameCoordinates,Original*%
%TF.FileFunction,Drillmap*%
%TF.FilePolarity,Positive*%
%FSLAX45Y45*%
G04 Gerber Fmt 4.5, Leading zero omitted, Abs format (unit mm)*
G04 Created by KiCad (PCBNEW (6.0.10-0)) date 2023-01-03 15:39:17*
%MOMM*%
%LPD*%
G01*
G04 APERTURE LIST*
%ADD10C,0.100000*%
%ADD11C,0.200000*%
%ADD12C,0.120000*%
%ADD13C,0.139700*%
%ADD14C,0.190500*%
%ADD15C,0.203200*%
%ADD16C,0.317500*%
G04 APERTURE END LIST*
D10*
X26568400Y-14757400D02*
X26060400Y-14757400D01*
X26568400Y-15798800D02*
X26568400Y-14757400D01*
X26543000Y-6654800D02*
X26060400Y-6654800D01*
X3835400Y-16103600D02*
X26060400Y-16103600D01*
X3835400Y-8051800D02*
X3530600Y-8051800D01*
X26543000Y-7670800D02*
X26543000Y-6654800D01*
X3835400Y-14401800D02*
X3835400Y-16103600D01*
X26060400Y-6654800D02*
X26060400Y-6324600D01*
X26060400Y-11734800D02*
X26568400Y-11734800D01*
X3530600Y-14401800D02*
X3835400Y-14401800D01*
X26568400Y-11734800D02*
X26568400Y-10718800D01*
X26060400Y-10718800D02*
X26060400Y-7670800D01*
X26568400Y-10718800D02*
X26060400Y-10718800D01*
X3835400Y-6324600D02*
X3835400Y-8051800D01*
X26060400Y-15798800D02*
X26568400Y-15798800D01*
X26060400Y-7670800D02*
X26543000Y-7670800D01*
X26060400Y-16103600D02*
X26060400Y-15798800D01*
X3530600Y-8051800D02*
X3530600Y-14401800D01*
X26060400Y-14757400D02*
X26060400Y-11734800D01*
X26060400Y-6324600D02*
X3835400Y-6324600D01*
D11*
D10*
X4090200Y-6554000D02*
X4190200Y-6654000D01*
X4190200Y-6554000D02*
X4090200Y-6654000D01*
X4090200Y-6808000D02*
X4190200Y-6908000D01*
X4190200Y-6808000D02*
X4090200Y-6908000D01*
X12269000Y-7011200D02*
X12369000Y-7111200D01*
X12369000Y-7011200D02*
X12269000Y-7111200D01*
X12269000Y-7265200D02*
X12369000Y-7365200D01*
X12369000Y-7265200D02*
X12269000Y-7365200D01*
X12523000Y-7011200D02*
X12623000Y-7111200D01*
X12623000Y-7011200D02*
X12523000Y-7111200D01*
X12523000Y-7265200D02*
X12623000Y-7365200D01*
X12623000Y-7265200D02*
X12523000Y-7365200D01*
X12777000Y-7011200D02*
X12877000Y-7111200D01*
X12877000Y-7011200D02*
X12777000Y-7111200D01*
X12777000Y-7265200D02*
X12877000Y-7365200D01*
X12877000Y-7265200D02*
X12777000Y-7365200D01*
X13031000Y-7011200D02*
X13131000Y-7111200D01*
X13131000Y-7011200D02*
X13031000Y-7111200D01*
X13031000Y-7265200D02*
X13131000Y-7365200D01*
X13131000Y-7265200D02*
X13031000Y-7365200D01*
X13196100Y-8205000D02*
X13296100Y-8305000D01*
X13296100Y-8205000D02*
X13196100Y-8305000D01*
X13196100Y-8713000D02*
X13296100Y-8813000D01*
X13296100Y-8713000D02*
X13196100Y-8813000D01*
X13196100Y-10237000D02*
X13296100Y-10337000D01*
X13296100Y-10237000D02*
X13196100Y-10337000D01*
X13196100Y-10745000D02*
X13296100Y-10845000D01*
X13296100Y-10745000D02*
X13196100Y-10845000D01*
X13196100Y-12319800D02*
X13296100Y-12419800D01*
X13296100Y-12319800D02*
X13196100Y-12419800D01*
X13196100Y-12827800D02*
X13296100Y-12927800D01*
X13296100Y-12827800D02*
X13196100Y-12927800D01*
X13196100Y-14428000D02*
X13296100Y-14528000D01*
X13296100Y-14428000D02*
X13196100Y-14528000D01*
X13196100Y-14936000D02*
X13296100Y-15036000D01*
X13296100Y-14936000D02*
X13196100Y-15036000D01*
X13285000Y-7011200D02*
X13385000Y-7111200D01*
X13385000Y-7011200D02*
X13285000Y-7111200D01*
X13285000Y-7265200D02*
X13385000Y-7365200D01*
X13385000Y-7265200D02*
X13285000Y-7365200D01*
X13539000Y-7011200D02*
X13639000Y-7111200D01*
X13639000Y-7011200D02*
X13539000Y-7111200D01*
X13539000Y-7265200D02*
X13639000Y-7365200D01*
X13639000Y-7265200D02*
X13539000Y-7365200D01*
X13793000Y-7011200D02*
X13893000Y-7111200D01*
X13893000Y-7011200D02*
X13793000Y-7111200D01*
X13793000Y-7265200D02*
X13893000Y-7365200D01*
X13893000Y-7265200D02*
X13793000Y-7365200D01*
X14047000Y-7011200D02*
X14147000Y-7111200D01*
X14147000Y-7011200D02*
X14047000Y-7111200D01*
X14047000Y-7265200D02*
X14147000Y-7365200D01*
X14147000Y-7265200D02*
X14047000Y-7365200D01*
X14301000Y-7011200D02*
X14401000Y-7111200D01*
X14401000Y-7011200D02*
X14301000Y-7111200D01*
X14301000Y-7265200D02*
X14401000Y-7365200D01*
X14401000Y-7265200D02*
X14301000Y-7365200D01*
X14555000Y-7011200D02*
X14655000Y-7111200D01*
X14655000Y-7011200D02*
X14555000Y-7111200D01*
X14555000Y-7265200D02*
X14655000Y-7365200D01*
X14655000Y-7265200D02*
X14555000Y-7365200D01*
X14809000Y-7011200D02*
X14909000Y-7111200D01*
X14909000Y-7011200D02*
X14809000Y-7111200D01*
X14809000Y-7265200D02*
X14909000Y-7365200D01*
X14909000Y-7265200D02*
X14809000Y-7365200D01*
X14986800Y-8179600D02*
X15086800Y-8279600D01*
X15086800Y-8179600D02*
X14986800Y-8279600D01*
X14986800Y-8687600D02*
X15086800Y-8787600D01*
X15086800Y-8687600D02*
X14986800Y-8787600D01*
X14986800Y-10135400D02*
X15086800Y-10235400D01*
X15086800Y-10135400D02*
X14986800Y-10235400D01*
X14986800Y-10643400D02*
X15086800Y-10743400D01*
X15086800Y-10643400D02*
X14986800Y-10743400D01*
X14999500Y-12319800D02*
X15099500Y-12419800D01*
X15099500Y-12319800D02*
X14999500Y-12419800D01*
X14999500Y-12827800D02*
X15099500Y-12927800D01*
X15099500Y-12827800D02*
X14999500Y-12927800D01*
X14999500Y-14428000D02*
X15099500Y-14528000D01*
X15099500Y-14428000D02*
X14999500Y-14528000D01*
X14999500Y-14936000D02*
X15099500Y-15036000D01*
X15099500Y-14936000D02*
X14999500Y-15036000D01*
X15063000Y-7011200D02*
X15163000Y-7111200D01*
X15163000Y-7011200D02*
X15063000Y-7111200D01*
X15063000Y-7265200D02*
X15163000Y-7365200D01*
X15163000Y-7265200D02*
X15063000Y-7365200D01*
X15317000Y-7011200D02*
X15417000Y-7111200D01*
X15417000Y-7011200D02*
X15317000Y-7111200D01*
X15317000Y-7265200D02*
X15417000Y-7365200D01*
X15417000Y-7265200D02*
X15317000Y-7365200D01*
X15571000Y-7011200D02*
X15671000Y-7111200D01*
X15671000Y-7011200D02*
X15571000Y-7111200D01*
X15571000Y-7265200D02*
X15671000Y-7365200D01*
X15671000Y-7265200D02*
X15571000Y-7365200D01*
X15825000Y-7011200D02*
X15925000Y-7111200D01*
X15925000Y-7011200D02*
X15825000Y-7111200D01*
X15825000Y-7265200D02*
X15925000Y-7365200D01*
X15925000Y-7265200D02*
X15825000Y-7365200D01*
X16079000Y-7011200D02*
X16179000Y-7111200D01*
X16179000Y-7011200D02*
X16079000Y-7111200D01*
X16079000Y-7265200D02*
X16179000Y-7365200D01*
X16179000Y-7265200D02*
X16079000Y-7365200D01*
X16333000Y-7011200D02*
X16433000Y-7111200D01*
X16433000Y-7011200D02*
X16333000Y-7111200D01*
X16333000Y-7265200D02*
X16433000Y-7365200D01*
X16433000Y-7265200D02*
X16333000Y-7365200D01*
X16409200Y-8408200D02*
X16509200Y-8508200D01*
X16509200Y-8408200D02*
X16409200Y-8508200D01*
X16409200Y-14224800D02*
X16509200Y-14324800D01*
X16509200Y-14224800D02*
X16409200Y-14324800D01*
X16587000Y-7011200D02*
X16687000Y-7111200D01*
X16687000Y-7011200D02*
X16587000Y-7111200D01*
X16587000Y-7265200D02*
X16687000Y-7365200D01*
X16687000Y-7265200D02*
X16587000Y-7365200D01*
X16663200Y-8408200D02*
X16763200Y-8508200D01*
X16763200Y-8408200D02*
X16663200Y-8508200D01*
X16663200Y-14224800D02*
X16763200Y-14324800D01*
X16763200Y-14224800D02*
X16663200Y-14324800D01*
X16841000Y-7011200D02*
X16941000Y-7111200D01*
X16941000Y-7011200D02*
X16841000Y-7111200D01*
X16841000Y-7265200D02*
X16941000Y-7365200D01*
X16941000Y-7265200D02*
X16841000Y-7365200D01*
X16917200Y-8408200D02*
X17017200Y-8508200D01*
X17017200Y-8408200D02*
X16917200Y-8508200D01*
X16917200Y-14224800D02*
X17017200Y-14324800D01*
X17017200Y-14224800D02*
X16917200Y-14324800D01*
X17095000Y-7011200D02*
X17195000Y-7111200D01*
X17195000Y-7011200D02*
X17095000Y-7111200D01*
X17095000Y-7265200D02*
X17195000Y-7365200D01*
X17195000Y-7265200D02*
X17095000Y-7365200D01*
X17171200Y-8408200D02*
X17271200Y-8508200D01*
X17271200Y-8408200D02*
X17171200Y-8508200D01*
X17171200Y-14224800D02*
X17271200Y-14324800D01*
X17271200Y-14224800D02*
X17171200Y-14324800D01*
X17425200Y-8408200D02*
X17525200Y-8508200D01*
X17525200Y-8408200D02*
X17425200Y-8508200D01*
X17425200Y-14224800D02*
X17525200Y-14324800D01*
X17525200Y-14224800D02*
X17425200Y-14324800D01*
X17679200Y-8408200D02*
X17779200Y-8508200D01*
X17779200Y-8408200D02*
X17679200Y-8508200D01*
X17679200Y-8916200D02*
X17779200Y-9016200D01*
X17779200Y-8916200D02*
X17679200Y-9016200D01*
X17679200Y-9170200D02*
X17779200Y-9270200D01*
X17779200Y-9170200D02*
X17679200Y-9270200D01*
X17679200Y-9424200D02*
X17779200Y-9524200D01*
X17779200Y-9424200D02*
X17679200Y-9524200D01*
X17679200Y-9678200D02*
X17779200Y-9778200D01*
X17779200Y-9678200D02*
X17679200Y-9778200D01*
X17679200Y-14224800D02*
X17779200Y-14324800D01*
X17779200Y-14224800D02*
X17679200Y-14324800D01*
X17691900Y-10186200D02*
X17791900Y-10286200D01*
X17791900Y-10186200D02*
X17691900Y-10286200D01*
X17691900Y-10440200D02*
X17791900Y-10540200D01*
X17791900Y-10440200D02*
X17691900Y-10540200D01*
X17691900Y-10694200D02*
X17791900Y-10794200D01*
X17791900Y-10694200D02*
X17691900Y-10794200D01*
X17691900Y-10948200D02*
X17791900Y-11048200D01*
X17791900Y-10948200D02*
X17691900Y-11048200D01*
X17691900Y-11710200D02*
X17791900Y-11810200D01*
X17791900Y-11710200D02*
X17691900Y-11810200D01*
X17691900Y-11964200D02*
X17791900Y-12064200D01*
X17791900Y-11964200D02*
X17691900Y-12064200D01*
X17691900Y-12218200D02*
X17791900Y-12318200D01*
X17791900Y-12218200D02*
X17691900Y-12318200D01*
X17691900Y-12472200D02*
X17791900Y-12572200D01*
X17791900Y-12472200D02*
X17691900Y-12572200D01*
X17691900Y-12980200D02*
X17791900Y-13080200D01*
X17791900Y-12980200D02*
X17691900Y-13080200D01*
X17691900Y-13234200D02*
X17791900Y-13334200D01*
X17791900Y-13234200D02*
X17691900Y-13334200D01*
X17691900Y-13488200D02*
X17791900Y-13588200D01*
X17791900Y-13488200D02*
X17691900Y-13588200D01*
X17691900Y-13742200D02*
X17791900Y-13842200D01*
X17791900Y-13742200D02*
X17691900Y-13842200D01*
X17933200Y-8916200D02*
X18033200Y-9016200D01*
X18033200Y-8916200D02*
X17933200Y-9016200D01*
X17933200Y-9170200D02*
X18033200Y-9270200D01*
X18033200Y-9170200D02*
X17933200Y-9270200D01*
X17933200Y-9424200D02*
X18033200Y-9524200D01*
X18033200Y-9424200D02*
X17933200Y-9524200D01*
X17933200Y-9678200D02*
X18033200Y-9778200D01*
X18033200Y-9678200D02*
X17933200Y-9778200D01*
X17945900Y-10186200D02*
X18045900Y-10286200D01*
X18045900Y-10186200D02*
X17945900Y-10286200D01*
X17945900Y-10440200D02*
X18045900Y-10540200D01*
X18045900Y-10440200D02*
X17945900Y-10540200D01*
X17945900Y-10694200D02*
X18045900Y-10794200D01*
X18045900Y-10694200D02*
X17945900Y-10794200D01*
X17945900Y-10948200D02*
X18045900Y-11048200D01*
X18045900Y-10948200D02*
X17945900Y-11048200D01*
X17945900Y-11710200D02*
X18045900Y-11810200D01*
X18045900Y-11710200D02*
X17945900Y-11810200D01*
X17945900Y-11964200D02*
X18045900Y-12064200D01*
X18045900Y-11964200D02*
X17945900Y-12064200D01*
X17945900Y-12218200D02*
X18045900Y-12318200D01*
X18045900Y-12218200D02*
X17945900Y-12318200D01*
X17945900Y-12472200D02*
X18045900Y-12572200D01*
X18045900Y-12472200D02*
X17945900Y-12572200D01*
X17945900Y-12980200D02*
X18045900Y-13080200D01*
X18045900Y-12980200D02*
X17945900Y-13080200D01*
X17945900Y-13234200D02*
X18045900Y-13334200D01*
X18045900Y-13234200D02*
X17945900Y-13334200D01*
X17945900Y-13488200D02*
X18045900Y-13588200D01*
X18045900Y-13488200D02*
X17945900Y-13588200D01*
X17945900Y-13742200D02*
X18045900Y-13842200D01*
X18045900Y-13742200D02*
X17945900Y-13842200D01*
X18187200Y-8916200D02*
X18287200Y-9016200D01*
X18287200Y-8916200D02*
X18187200Y-9016200D01*
X18187200Y-9170200D02*
X18287200Y-9270200D01*
X18287200Y-9170200D02*
X18187200Y-9270200D01*
X18187200Y-9424200D02*
X18287200Y-9524200D01*
X18287200Y-9424200D02*
X18187200Y-9524200D01*
X18187200Y-9678200D02*
X18287200Y-9778200D01*
X18287200Y-9678200D02*
X18187200Y-9778200D01*
X18199900Y-10186200D02*
X18299900Y-10286200D01*
X18299900Y-10186200D02*
X18199900Y-10286200D01*
X18199900Y-10440200D02*
X18299900Y-10540200D01*
X18299900Y-10440200D02*
X18199900Y-10540200D01*
X18199900Y-10694200D02*
X18299900Y-10794200D01*
X18299900Y-10694200D02*
X18199900Y-10794200D01*
X18199900Y-10948200D02*
X18299900Y-11048200D01*
X18299900Y-10948200D02*
X18199900Y-11048200D01*
X18199900Y-11710200D02*
X18299900Y-11810200D01*
X18299900Y-11710200D02*
X18199900Y-11810200D01*
X18199900Y-11964200D02*
X18299900Y-12064200D01*
X18299900Y-11964200D02*
X18199900Y-12064200D01*
X18199900Y-12218200D02*
X18299900Y-12318200D01*
X18299900Y-12218200D02*
X18199900Y-12318200D01*
X18199900Y-12472200D02*
X18299900Y-12572200D01*
X18299900Y-12472200D02*
X18199900Y-12572200D01*
X18199900Y-12980200D02*
X18299900Y-13080200D01*
X18299900Y-12980200D02*
X18199900Y-13080200D01*
X18199900Y-13234200D02*
X18299900Y-13334200D01*
X18299900Y-13234200D02*
X18199900Y-13334200D01*
X18199900Y-13488200D02*
X18299900Y-13588200D01*
X18299900Y-13488200D02*
X18199900Y-13588200D01*
X18199900Y-13742200D02*
X18299900Y-13842200D01*
X18299900Y-13742200D02*
X18199900Y-13842200D01*
X21552700Y-13031000D02*
X21652700Y-13131000D01*
X21652700Y-13031000D02*
X21552700Y-13131000D01*
X21806700Y-13031000D02*
X21906700Y-13131000D01*
X21906700Y-13031000D02*
X21806700Y-13131000D01*
X21806700Y-14809000D02*
X21906700Y-14909000D01*
X21906700Y-14809000D02*
X21806700Y-14909000D01*
X22060700Y-13031000D02*
X22160700Y-13131000D01*
X22160700Y-13031000D02*
X22060700Y-13131000D01*
X22060700Y-14809000D02*
X22160700Y-14909000D01*
X22160700Y-14809000D02*
X22060700Y-14909000D01*
X22314700Y-13031000D02*
X22414700Y-13131000D01*
X22414700Y-13031000D02*
X22314700Y-13131000D01*
X22314700Y-14809000D02*
X22414700Y-14909000D01*
X22414700Y-14809000D02*
X22314700Y-14909000D01*
X22568700Y-13031000D02*
X22668700Y-13131000D01*
X22668700Y-13031000D02*
X22568700Y-13131000D01*
X22568700Y-14809000D02*
X22668700Y-14909000D01*
X22668700Y-14809000D02*
X22568700Y-14909000D01*
X22822700Y-13031000D02*
X22922700Y-13131000D01*
X22922700Y-13031000D02*
X22822700Y-13131000D01*
D12*
X24031200Y-7366000D02*
G75*
G03*
X24031200Y-7366000I-60000J0D01*
G01*
X24381300Y-7366000D02*
G75*
G03*
X24381300Y-7366000I-60000J0D01*
G01*
D13*
X22225000Y-7391350D02*
X22225000Y-7531050D01*
X22155150Y-7461200D02*
X22294850Y-7461200D01*
X23241000Y-7391350D02*
X23241000Y-7531050D01*
X23171150Y-7461200D02*
X23310850Y-7461200D01*
D14*
X24400553Y-14773953D02*
X24400553Y-14639247D01*
X24265847Y-14639247D01*
X24265847Y-14773953D01*
X24400553Y-14773953D01*
X24400553Y-15281953D02*
X24400553Y-15147247D01*
X24265847Y-15147247D01*
X24265847Y-15281953D01*
X24400553Y-15281953D01*
D15*
X12585700Y-8102600D02*
X12687300Y-8001000D01*
X12585700Y-7899400D01*
X12484100Y-8001000D01*
X12585700Y-8102600D01*
X12585700Y-9118600D02*
X12687300Y-9017000D01*
X12585700Y-8915400D01*
X12484100Y-9017000D01*
X12585700Y-9118600D01*
X12585700Y-10134600D02*
X12687300Y-10033000D01*
X12585700Y-9931400D01*
X12484100Y-10033000D01*
X12585700Y-10134600D01*
X12585700Y-11150600D02*
X12687300Y-11049000D01*
X12585700Y-10947400D01*
X12484100Y-11049000D01*
X12585700Y-11150600D01*
X12585700Y-12217400D02*
X12687300Y-12115800D01*
X12585700Y-12014200D01*
X12484100Y-12115800D01*
X12585700Y-12217400D01*
X12585700Y-13233400D02*
X12687300Y-13131800D01*
X12585700Y-13030200D01*
X12484100Y-13131800D01*
X12585700Y-13233400D01*
X12585700Y-14325600D02*
X12687300Y-14224000D01*
X12585700Y-14122400D01*
X12484100Y-14224000D01*
X12585700Y-14325600D01*
X12585700Y-15341600D02*
X12687300Y-15240000D01*
X12585700Y-15138400D01*
X12484100Y-15240000D01*
X12585700Y-15341600D01*
X14376400Y-8077200D02*
X14478000Y-7975600D01*
X14376400Y-7874000D01*
X14274800Y-7975600D01*
X14376400Y-8077200D01*
X14376400Y-9093200D02*
X14478000Y-8991600D01*
X14376400Y-8890000D01*
X14274800Y-8991600D01*
X14376400Y-9093200D01*
X14376400Y-10033000D02*
X14478000Y-9931400D01*
X14376400Y-9829800D01*
X14274800Y-9931400D01*
X14376400Y-10033000D01*
X14376400Y-11049000D02*
X14478000Y-10947400D01*
X14376400Y-10845800D01*
X14274800Y-10947400D01*
X14376400Y-11049000D01*
X14389100Y-12217400D02*
X14490700Y-12115800D01*
X14389100Y-12014200D01*
X14287500Y-12115800D01*
X14389100Y-12217400D01*
X14389100Y-13233400D02*
X14490700Y-13131800D01*
X14389100Y-13030200D01*
X14287500Y-13131800D01*
X14389100Y-13233400D01*
X14389100Y-14325600D02*
X14490700Y-14224000D01*
X14389100Y-14122400D01*
X14287500Y-14224000D01*
X14389100Y-14325600D01*
X14389100Y-15341600D02*
X14490700Y-15240000D01*
X14389100Y-15138400D01*
X14287500Y-15240000D01*
X14389100Y-15341600D01*
D16*
X4057650Y-10610850D02*
X4375150Y-10928350D01*
X4375150Y-10610850D02*
X4057650Y-10928350D01*
X4375150Y-10769600D02*
G75*
G03*
X4375150Y-10769600I-158750J0D01*
G01*
X4057650Y-11626850D02*
X4375150Y-11944350D01*
X4375150Y-11626850D02*
X4057650Y-11944350D01*
X4375150Y-11785600D02*
G75*
G03*
X4375150Y-11785600I-158750J0D01*
G01*
D11*
X3783219Y-16419076D02*
X3783219Y-16219076D01*
X3830838Y-16219076D01*
X3859409Y-16228600D01*
X3878457Y-16247648D01*
X3887981Y-16266695D01*
X3897505Y-16304790D01*
X3897505Y-16333362D01*
X3887981Y-16371457D01*
X3878457Y-16390505D01*
X3859409Y-16409552D01*
X3830838Y-16419076D01*
X3783219Y-16419076D01*
X3983219Y-16419076D02*
X3983219Y-16285743D01*
X3983219Y-16323838D02*
X3992743Y-16304790D01*
X4002267Y-16295267D01*
X4021314Y-16285743D01*
X4040362Y-16285743D01*
X4107028Y-16419076D02*
X4107028Y-16285743D01*
X4107028Y-16219076D02*
X4097505Y-16228600D01*
X4107028Y-16238124D01*
X4116552Y-16228600D01*
X4107028Y-16219076D01*
X4107028Y-16238124D01*
X4230838Y-16419076D02*
X4211790Y-16409552D01*
X4202267Y-16390505D01*
X4202267Y-16219076D01*
X4335600Y-16419076D02*
X4316552Y-16409552D01*
X4307029Y-16390505D01*
X4307029Y-16219076D01*
X4564171Y-16419076D02*
X4564171Y-16219076D01*
X4630838Y-16361933D01*
X4697505Y-16219076D01*
X4697505Y-16419076D01*
X4878457Y-16419076D02*
X4878457Y-16314314D01*
X4868933Y-16295267D01*
X4849886Y-16285743D01*
X4811790Y-16285743D01*
X4792743Y-16295267D01*
X4878457Y-16409552D02*
X4859410Y-16419076D01*
X4811790Y-16419076D01*
X4792743Y-16409552D01*
X4783219Y-16390505D01*
X4783219Y-16371457D01*
X4792743Y-16352409D01*
X4811790Y-16342886D01*
X4859410Y-16342886D01*
X4878457Y-16333362D01*
X4973695Y-16285743D02*
X4973695Y-16485743D01*
X4973695Y-16295267D02*
X4992743Y-16285743D01*
X5030838Y-16285743D01*
X5049886Y-16295267D01*
X5059410Y-16304790D01*
X5068933Y-16323838D01*
X5068933Y-16380981D01*
X5059410Y-16400028D01*
X5049886Y-16409552D01*
X5030838Y-16419076D01*
X4992743Y-16419076D01*
X4973695Y-16409552D01*
X5154648Y-16400028D02*
X5164171Y-16409552D01*
X5154648Y-16419076D01*
X5145124Y-16409552D01*
X5154648Y-16400028D01*
X5154648Y-16419076D01*
X5154648Y-16295267D02*
X5164171Y-16304790D01*
X5154648Y-16314314D01*
X5145124Y-16304790D01*
X5154648Y-16295267D01*
X5154648Y-16314314D01*
D10*
X3425600Y-16698600D02*
X3525600Y-16798600D01*
X3525600Y-16698600D02*
X3425600Y-16798600D01*
D11*
X3887981Y-16839076D02*
X3773695Y-16839076D01*
X3830838Y-16839076D02*
X3830838Y-16639076D01*
X3811790Y-16667648D01*
X3792743Y-16686695D01*
X3773695Y-16696219D01*
X3973695Y-16820029D02*
X3983219Y-16829552D01*
X3973695Y-16839076D01*
X3964171Y-16829552D01*
X3973695Y-16820029D01*
X3973695Y-16839076D01*
X4107028Y-16639076D02*
X4126076Y-16639076D01*
X4145124Y-16648600D01*
X4154648Y-16658124D01*
X4164171Y-16677171D01*
X4173695Y-16715267D01*
X4173695Y-16762886D01*
X4164171Y-16800981D01*
X4154648Y-16820029D01*
X4145124Y-16829552D01*
X4126076Y-16839076D01*
X4107028Y-16839076D01*
X4087981Y-16829552D01*
X4078457Y-16820029D01*
X4068933Y-16800981D01*
X4059409Y-16762886D01*
X4059409Y-16715267D01*
X4068933Y-16677171D01*
X4078457Y-16658124D01*
X4087981Y-16648600D01*
X4107028Y-16639076D01*
X4297505Y-16639076D02*
X4316552Y-16639076D01*
X4335600Y-16648600D01*
X4345124Y-16658124D01*
X4354648Y-16677171D01*
X4364171Y-16715267D01*
X4364171Y-16762886D01*
X4354648Y-16800981D01*
X4345124Y-16820029D01*
X4335600Y-16829552D01*
X4316552Y-16839076D01*
X4297505Y-16839076D01*
X4278457Y-16829552D01*
X4268933Y-16820029D01*
X4259410Y-16800981D01*
X4249886Y-16762886D01*
X4249886Y-16715267D01*
X4259410Y-16677171D01*
X4268933Y-16658124D01*
X4278457Y-16648600D01*
X4297505Y-16639076D01*
X4487981Y-16639076D02*
X4507029Y-16639076D01*
X4526076Y-16648600D01*
X4535600Y-16658124D01*
X4545124Y-16677171D01*
X4554648Y-16715267D01*
X4554648Y-16762886D01*
X4545124Y-16800981D01*
X4535600Y-16820029D01*
X4526076Y-16829552D01*
X4507029Y-16839076D01*
X4487981Y-16839076D01*
X4468933Y-16829552D01*
X4459410Y-16820029D01*
X4449886Y-16800981D01*
X4440362Y-16762886D01*
X4440362Y-16715267D01*
X4449886Y-16677171D01*
X4459410Y-16658124D01*
X4468933Y-16648600D01*
X4487981Y-16639076D01*
X4640362Y-16839076D02*
X4640362Y-16705743D01*
X4640362Y-16724790D02*
X4649886Y-16715267D01*
X4668933Y-16705743D01*
X4697505Y-16705743D01*
X4716552Y-16715267D01*
X4726076Y-16734314D01*
X4726076Y-16839076D01*
X4726076Y-16734314D02*
X4735600Y-16715267D01*
X4754648Y-16705743D01*
X4783219Y-16705743D01*
X4802267Y-16715267D01*
X4811790Y-16734314D01*
X4811790Y-16839076D01*
X4907029Y-16839076D02*
X4907029Y-16705743D01*
X4907029Y-16724790D02*
X4916552Y-16715267D01*
X4935600Y-16705743D01*
X4964171Y-16705743D01*
X4983219Y-16715267D01*
X4992743Y-16734314D01*
X4992743Y-16839076D01*
X4992743Y-16734314D02*
X5002267Y-16715267D01*
X5021314Y-16705743D01*
X5049886Y-16705743D01*
X5068933Y-16715267D01*
X5078457Y-16734314D01*
X5078457Y-16839076D01*
X5468933Y-16629552D02*
X5297505Y-16886695D01*
X5726076Y-16639076D02*
X5745124Y-16639076D01*
X5764171Y-16648600D01*
X5773695Y-16658124D01*
X5783219Y-16677171D01*
X5792743Y-16715267D01*
X5792743Y-16762886D01*
X5783219Y-16800981D01*
X5773695Y-16820029D01*
X5764171Y-16829552D01*
X5745124Y-16839076D01*
X5726076Y-16839076D01*
X5707028Y-16829552D01*
X5697505Y-16820029D01*
X5687981Y-16800981D01*
X5678457Y-16762886D01*
X5678457Y-16715267D01*
X5687981Y-16677171D01*
X5697505Y-16658124D01*
X5707028Y-16648600D01*
X5726076Y-16639076D01*
X5878457Y-16820029D02*
X5887981Y-16829552D01*
X5878457Y-16839076D01*
X5868933Y-16829552D01*
X5878457Y-16820029D01*
X5878457Y-16839076D01*
X6011790Y-16639076D02*
X6030838Y-16639076D01*
X6049886Y-16648600D01*
X6059409Y-16658124D01*
X6068933Y-16677171D01*
X6078457Y-16715267D01*
X6078457Y-16762886D01*
X6068933Y-16800981D01*
X6059409Y-16820029D01*
X6049886Y-16829552D01*
X6030838Y-16839076D01*
X6011790Y-16839076D01*
X5992743Y-16829552D01*
X5983219Y-16820029D01*
X5973695Y-16800981D01*
X5964171Y-16762886D01*
X5964171Y-16715267D01*
X5973695Y-16677171D01*
X5983219Y-16658124D01*
X5992743Y-16648600D01*
X6011790Y-16639076D01*
X6145124Y-16639076D02*
X6268933Y-16639076D01*
X6202267Y-16715267D01*
X6230838Y-16715267D01*
X6249886Y-16724790D01*
X6259409Y-16734314D01*
X6268933Y-16753362D01*
X6268933Y-16800981D01*
X6259409Y-16820029D01*
X6249886Y-16829552D01*
X6230838Y-16839076D01*
X6173695Y-16839076D01*
X6154648Y-16829552D01*
X6145124Y-16820029D01*
X6364171Y-16839076D02*
X6402267Y-16839076D01*
X6421314Y-16829552D01*
X6430838Y-16820029D01*
X6449886Y-16791457D01*
X6459409Y-16753362D01*
X6459409Y-16677171D01*
X6449886Y-16658124D01*
X6440362Y-16648600D01*
X6421314Y-16639076D01*
X6383219Y-16639076D01*
X6364171Y-16648600D01*
X6354648Y-16658124D01*
X6345124Y-16677171D01*
X6345124Y-16724790D01*
X6354648Y-16743838D01*
X6364171Y-16753362D01*
X6383219Y-16762886D01*
X6421314Y-16762886D01*
X6440362Y-16753362D01*
X6449886Y-16743838D01*
X6459409Y-16724790D01*
X6630838Y-16705743D02*
X6630838Y-16839076D01*
X6583219Y-16629552D02*
X6535600Y-16772409D01*
X6659409Y-16772409D01*
X6726076Y-16639076D02*
X6726076Y-16677171D01*
X6802267Y-16639076D02*
X6802267Y-16677171D01*
X7097505Y-16915267D02*
X7087981Y-16905743D01*
X7068933Y-16877171D01*
X7059409Y-16858124D01*
X7049886Y-16829552D01*
X7040362Y-16781933D01*
X7040362Y-16743838D01*
X7049886Y-16696219D01*
X7059409Y-16667648D01*
X7068933Y-16648600D01*
X7087981Y-16620028D01*
X7097505Y-16610505D01*
X7278457Y-16839076D02*
X7164171Y-16839076D01*
X7221314Y-16839076D02*
X7221314Y-16639076D01*
X7202267Y-16667648D01*
X7183219Y-16686695D01*
X7164171Y-16696219D01*
X7354648Y-16658124D02*
X7364171Y-16648600D01*
X7383219Y-16639076D01*
X7430838Y-16639076D01*
X7449886Y-16648600D01*
X7459409Y-16658124D01*
X7468933Y-16677171D01*
X7468933Y-16696219D01*
X7459409Y-16724790D01*
X7345124Y-16839076D01*
X7468933Y-16839076D01*
X7583219Y-16724790D02*
X7564171Y-16715267D01*
X7554648Y-16705743D01*
X7545124Y-16686695D01*
X7545124Y-16677171D01*
X7554648Y-16658124D01*
X7564171Y-16648600D01*
X7583219Y-16639076D01*
X7621314Y-16639076D01*
X7640362Y-16648600D01*
X7649886Y-16658124D01*
X7659409Y-16677171D01*
X7659409Y-16686695D01*
X7649886Y-16705743D01*
X7640362Y-16715267D01*
X7621314Y-16724790D01*
X7583219Y-16724790D01*
X7564171Y-16734314D01*
X7554648Y-16743838D01*
X7545124Y-16762886D01*
X7545124Y-16800981D01*
X7554648Y-16820029D01*
X7564171Y-16829552D01*
X7583219Y-16839076D01*
X7621314Y-16839076D01*
X7640362Y-16829552D01*
X7649886Y-16820029D01*
X7659409Y-16800981D01*
X7659409Y-16762886D01*
X7649886Y-16743838D01*
X7640362Y-16734314D01*
X7621314Y-16724790D01*
X7897505Y-16839076D02*
X7897505Y-16639076D01*
X7983219Y-16839076D02*
X7983219Y-16734314D01*
X7973695Y-16715267D01*
X7954648Y-16705743D01*
X7926076Y-16705743D01*
X7907028Y-16715267D01*
X7897505Y-16724790D01*
X8107028Y-16839076D02*
X8087981Y-16829552D01*
X8078457Y-16820029D01*
X8068933Y-16800981D01*
X8068933Y-16743838D01*
X8078457Y-16724790D01*
X8087981Y-16715267D01*
X8107028Y-16705743D01*
X8135600Y-16705743D01*
X8154648Y-16715267D01*
X8164171Y-16724790D01*
X8173695Y-16743838D01*
X8173695Y-16800981D01*
X8164171Y-16820029D01*
X8154648Y-16829552D01*
X8135600Y-16839076D01*
X8107028Y-16839076D01*
X8287981Y-16839076D02*
X8268933Y-16829552D01*
X8259409Y-16810505D01*
X8259409Y-16639076D01*
X8440362Y-16829552D02*
X8421314Y-16839076D01*
X8383219Y-16839076D01*
X8364171Y-16829552D01*
X8354648Y-16810505D01*
X8354648Y-16734314D01*
X8364171Y-16715267D01*
X8383219Y-16705743D01*
X8421314Y-16705743D01*
X8440362Y-16715267D01*
X8449886Y-16734314D01*
X8449886Y-16753362D01*
X8354648Y-16772409D01*
X8526076Y-16829552D02*
X8545124Y-16839076D01*
X8583219Y-16839076D01*
X8602267Y-16829552D01*
X8611790Y-16810505D01*
X8611790Y-16800981D01*
X8602267Y-16781933D01*
X8583219Y-16772409D01*
X8554648Y-16772409D01*
X8535600Y-16762886D01*
X8526076Y-16743838D01*
X8526076Y-16734314D01*
X8535600Y-16715267D01*
X8554648Y-16705743D01*
X8583219Y-16705743D01*
X8602267Y-16715267D01*
X8678457Y-16915267D02*
X8687981Y-16905743D01*
X8707029Y-16877171D01*
X8716552Y-16858124D01*
X8726076Y-16829552D01*
X8735600Y-16781933D01*
X8735600Y-16743838D01*
X8726076Y-16696219D01*
X8716552Y-16667648D01*
X8707029Y-16648600D01*
X8687981Y-16620028D01*
X8678457Y-16610505D01*
D12*
X3525600Y-17012600D02*
G75*
G03*
X3525600Y-17012600I-60000J0D01*
G01*
D11*
X3887981Y-17103076D02*
X3773695Y-17103076D01*
X3830838Y-17103076D02*
X3830838Y-16903076D01*
X3811790Y-16931648D01*
X3792743Y-16950695D01*
X3773695Y-16960219D01*
X3973695Y-17084029D02*
X3983219Y-17093552D01*
X3973695Y-17103076D01*
X3964171Y-17093552D01*
X3973695Y-17084029D01*
X3973695Y-17103076D01*
X4059409Y-16922124D02*
X4068933Y-16912600D01*
X4087981Y-16903076D01*
X4135600Y-16903076D01*
X4154648Y-16912600D01*
X4164171Y-16922124D01*
X4173695Y-16941171D01*
X4173695Y-16960219D01*
X4164171Y-16988790D01*
X4049886Y-17103076D01*
X4173695Y-17103076D01*
X4297505Y-16903076D02*
X4316552Y-16903076D01*
X4335600Y-16912600D01*
X4345124Y-16922124D01*
X4354648Y-16941171D01*
X4364171Y-16979267D01*
X4364171Y-17026886D01*
X4354648Y-17064981D01*
X4345124Y-17084029D01*
X4335600Y-17093552D01*
X4316552Y-17103076D01*
X4297505Y-17103076D01*
X4278457Y-17093552D01*
X4268933Y-17084029D01*
X4259410Y-17064981D01*
X4249886Y-17026886D01*
X4249886Y-16979267D01*
X4259410Y-16941171D01*
X4268933Y-16922124D01*
X4278457Y-16912600D01*
X4297505Y-16903076D01*
X4487981Y-16903076D02*
X4507029Y-16903076D01*
X4526076Y-16912600D01*
X4535600Y-16922124D01*
X4545124Y-16941171D01*
X4554648Y-16979267D01*
X4554648Y-17026886D01*
X4545124Y-17064981D01*
X4535600Y-17084029D01*
X4526076Y-17093552D01*
X4507029Y-17103076D01*
X4487981Y-17103076D01*
X4468933Y-17093552D01*
X4459410Y-17084029D01*
X4449886Y-17064981D01*
X4440362Y-17026886D01*
X4440362Y-16979267D01*
X4449886Y-16941171D01*
X4459410Y-16922124D01*
X4468933Y-16912600D01*
X4487981Y-16903076D01*
X4640362Y-17103076D02*
X4640362Y-16969743D01*
X4640362Y-16988790D02*
X4649886Y-16979267D01*
X4668933Y-16969743D01*
X4697505Y-16969743D01*
X4716552Y-16979267D01*
X4726076Y-16998314D01*
X4726076Y-17103076D01*
X4726076Y-16998314D02*
X4735600Y-16979267D01*
X4754648Y-16969743D01*
X4783219Y-16969743D01*
X4802267Y-16979267D01*
X4811790Y-16998314D01*
X4811790Y-17103076D01*
X4907029Y-17103076D02*
X4907029Y-16969743D01*
X4907029Y-16988790D02*
X4916552Y-16979267D01*
X4935600Y-16969743D01*
X4964171Y-16969743D01*
X4983219Y-16979267D01*
X4992743Y-16998314D01*
X4992743Y-17103076D01*
X4992743Y-16998314D02*
X5002267Y-16979267D01*
X5021314Y-16969743D01*
X5049886Y-16969743D01*
X5068933Y-16979267D01*
X5078457Y-16998314D01*
X5078457Y-17103076D01*
X5468933Y-16893552D02*
X5297505Y-17150695D01*
X5726076Y-16903076D02*
X5745124Y-16903076D01*
X5764171Y-16912600D01*
X5773695Y-16922124D01*
X5783219Y-16941171D01*
X5792743Y-16979267D01*
X5792743Y-17026886D01*
X5783219Y-17064981D01*
X5773695Y-17084029D01*
X5764171Y-17093552D01*
X5745124Y-17103076D01*
X5726076Y-17103076D01*
X5707028Y-17093552D01*
X5697505Y-17084029D01*
X5687981Y-17064981D01*
X5678457Y-17026886D01*
X5678457Y-16979267D01*
X5687981Y-16941171D01*
X5697505Y-16922124D01*
X5707028Y-16912600D01*
X5726076Y-16903076D01*
X5878457Y-17084029D02*
X5887981Y-17093552D01*
X5878457Y-17103076D01*
X5868933Y-17093552D01*
X5878457Y-17084029D01*
X5878457Y-17103076D01*
X6011790Y-16903076D02*
X6030838Y-16903076D01*
X6049886Y-16912600D01*
X6059409Y-16922124D01*
X6068933Y-16941171D01*
X6078457Y-16979267D01*
X6078457Y-17026886D01*
X6068933Y-17064981D01*
X6059409Y-17084029D01*
X6049886Y-17093552D01*
X6030838Y-17103076D01*
X6011790Y-17103076D01*
X5992743Y-17093552D01*
X5983219Y-17084029D01*
X5973695Y-17064981D01*
X5964171Y-17026886D01*
X5964171Y-16979267D01*
X5973695Y-16941171D01*
X5983219Y-16922124D01*
X5992743Y-16912600D01*
X6011790Y-16903076D01*
X6249886Y-16969743D02*
X6249886Y-17103076D01*
X6202267Y-16893552D02*
X6154648Y-17036410D01*
X6278457Y-17036410D01*
X6335600Y-16903076D02*
X6468933Y-16903076D01*
X6383219Y-17103076D01*
X6535600Y-16922124D02*
X6545124Y-16912600D01*
X6564171Y-16903076D01*
X6611790Y-16903076D01*
X6630838Y-16912600D01*
X6640362Y-16922124D01*
X6649886Y-16941171D01*
X6649886Y-16960219D01*
X6640362Y-16988790D01*
X6526076Y-17103076D01*
X6649886Y-17103076D01*
X6726076Y-16903076D02*
X6726076Y-16941171D01*
X6802267Y-16903076D02*
X6802267Y-16941171D01*
X7097505Y-17179267D02*
X7087981Y-17169743D01*
X7068933Y-17141171D01*
X7059409Y-17122124D01*
X7049886Y-17093552D01*
X7040362Y-17045933D01*
X7040362Y-17007838D01*
X7049886Y-16960219D01*
X7059409Y-16931648D01*
X7068933Y-16912600D01*
X7087981Y-16884029D01*
X7097505Y-16874505D01*
X7164171Y-16922124D02*
X7173695Y-16912600D01*
X7192743Y-16903076D01*
X7240362Y-16903076D01*
X7259409Y-16912600D01*
X7268933Y-16922124D01*
X7278457Y-16941171D01*
X7278457Y-16960219D01*
X7268933Y-16988790D01*
X7154648Y-17103076D01*
X7278457Y-17103076D01*
X7516552Y-17103076D02*
X7516552Y-16903076D01*
X7602267Y-17103076D02*
X7602267Y-16998314D01*
X7592743Y-16979267D01*
X7573695Y-16969743D01*
X7545124Y-16969743D01*
X7526076Y-16979267D01*
X7516552Y-16988790D01*
X7726076Y-17103076D02*
X7707028Y-17093552D01*
X7697505Y-17084029D01*
X7687981Y-17064981D01*
X7687981Y-17007838D01*
X7697505Y-16988790D01*
X7707028Y-16979267D01*
X7726076Y-16969743D01*
X7754648Y-16969743D01*
X7773695Y-16979267D01*
X7783219Y-16988790D01*
X7792743Y-17007838D01*
X7792743Y-17064981D01*
X7783219Y-17084029D01*
X7773695Y-17093552D01*
X7754648Y-17103076D01*
X7726076Y-17103076D01*
X7907028Y-17103076D02*
X7887981Y-17093552D01*
X7878457Y-17074505D01*
X7878457Y-16903076D01*
X8059409Y-17093552D02*
X8040362Y-17103076D01*
X8002267Y-17103076D01*
X7983219Y-17093552D01*
X7973695Y-17074505D01*
X7973695Y-16998314D01*
X7983219Y-16979267D01*
X8002267Y-16969743D01*
X8040362Y-16969743D01*
X8059409Y-16979267D01*
X8068933Y-16998314D01*
X8068933Y-17017362D01*
X7973695Y-17036410D01*
X8145124Y-17093552D02*
X8164171Y-17103076D01*
X8202267Y-17103076D01*
X8221314Y-17093552D01*
X8230838Y-17074505D01*
X8230838Y-17064981D01*
X8221314Y-17045933D01*
X8202267Y-17036410D01*
X8173695Y-17036410D01*
X8154648Y-17026886D01*
X8145124Y-17007838D01*
X8145124Y-16998314D01*
X8154648Y-16979267D01*
X8173695Y-16969743D01*
X8202267Y-16969743D01*
X8221314Y-16979267D01*
X8297505Y-17179267D02*
X8307028Y-17169743D01*
X8326076Y-17141171D01*
X8335600Y-17122124D01*
X8345124Y-17093552D01*
X8354648Y-17045933D01*
X8354648Y-17007838D01*
X8345124Y-16960219D01*
X8335600Y-16931648D01*
X8326076Y-16912600D01*
X8307028Y-16884029D01*
X8297505Y-16874505D01*
D13*
X3455750Y-17206750D02*
X3455750Y-17346450D01*
X3385900Y-17276600D02*
X3525600Y-17276600D01*
D11*
X3887981Y-17367076D02*
X3773695Y-17367076D01*
X3830838Y-17367076D02*
X3830838Y-17167076D01*
X3811790Y-17195648D01*
X3792743Y-17214695D01*
X3773695Y-17224219D01*
X3973695Y-17348029D02*
X3983219Y-17357552D01*
X3973695Y-17367076D01*
X3964171Y-17357552D01*
X3973695Y-17348029D01*
X3973695Y-17367076D01*
X4049886Y-17167076D02*
X4173695Y-17167076D01*
X4107028Y-17243267D01*
X4135600Y-17243267D01*
X4154648Y-17252790D01*
X4164171Y-17262314D01*
X4173695Y-17281362D01*
X4173695Y-17328981D01*
X4164171Y-17348029D01*
X4154648Y-17357552D01*
X4135600Y-17367076D01*
X4078457Y-17367076D01*
X4059409Y-17357552D01*
X4049886Y-17348029D01*
X4268933Y-17367076D02*
X4307029Y-17367076D01*
X4326076Y-17357552D01*
X4335600Y-17348029D01*
X4354648Y-17319457D01*
X4364171Y-17281362D01*
X4364171Y-17205171D01*
X4354648Y-17186124D01*
X4345124Y-17176600D01*
X4326076Y-17167076D01*
X4287981Y-17167076D01*
X4268933Y-17176600D01*
X4259410Y-17186124D01*
X4249886Y-17205171D01*
X4249886Y-17252790D01*
X4259410Y-17271838D01*
X4268933Y-17281362D01*
X4287981Y-17290886D01*
X4326076Y-17290886D01*
X4345124Y-17281362D01*
X4354648Y-17271838D01*
X4364171Y-17252790D01*
X4430838Y-17167076D02*
X4564171Y-17167076D01*
X4478457Y-17367076D01*
X4640362Y-17367076D02*
X4640362Y-17233743D01*
X4640362Y-17252790D02*
X4649886Y-17243267D01*
X4668933Y-17233743D01*
X4697505Y-17233743D01*
X4716552Y-17243267D01*
X4726076Y-17262314D01*
X4726076Y-17367076D01*
X4726076Y-17262314D02*
X4735600Y-17243267D01*
X4754648Y-17233743D01*
X4783219Y-17233743D01*
X4802267Y-17243267D01*
X4811790Y-17262314D01*
X4811790Y-17367076D01*
X4907029Y-17367076D02*
X4907029Y-17233743D01*
X4907029Y-17252790D02*
X4916552Y-17243267D01*
X4935600Y-17233743D01*
X4964171Y-17233743D01*
X4983219Y-17243267D01*
X4992743Y-17262314D01*
X4992743Y-17367076D01*
X4992743Y-17262314D02*
X5002267Y-17243267D01*
X5021314Y-17233743D01*
X5049886Y-17233743D01*
X5068933Y-17243267D01*
X5078457Y-17262314D01*
X5078457Y-17367076D01*
X5468933Y-17157552D02*
X5297505Y-17414695D01*
X5726076Y-17167076D02*
X5745124Y-17167076D01*
X5764171Y-17176600D01*
X5773695Y-17186124D01*
X5783219Y-17205171D01*
X5792743Y-17243267D01*
X5792743Y-17290886D01*
X5783219Y-17328981D01*
X5773695Y-17348029D01*
X5764171Y-17357552D01*
X5745124Y-17367076D01*
X5726076Y-17367076D01*
X5707028Y-17357552D01*
X5697505Y-17348029D01*
X5687981Y-17328981D01*
X5678457Y-17290886D01*
X5678457Y-17243267D01*
X5687981Y-17205171D01*
X5697505Y-17186124D01*
X5707028Y-17176600D01*
X5726076Y-17167076D01*
X5878457Y-17348029D02*
X5887981Y-17357552D01*
X5878457Y-17367076D01*
X5868933Y-17357552D01*
X5878457Y-17348029D01*
X5878457Y-17367076D01*
X6011790Y-17167076D02*
X6030838Y-17167076D01*
X6049886Y-17176600D01*
X6059409Y-17186124D01*
X6068933Y-17205171D01*
X6078457Y-17243267D01*
X6078457Y-17290886D01*
X6068933Y-17328981D01*
X6059409Y-17348029D01*
X6049886Y-17357552D01*
X6030838Y-17367076D01*
X6011790Y-17367076D01*
X5992743Y-17357552D01*
X5983219Y-17348029D01*
X5973695Y-17328981D01*
X5964171Y-17290886D01*
X5964171Y-17243267D01*
X5973695Y-17205171D01*
X5983219Y-17186124D01*
X5992743Y-17176600D01*
X6011790Y-17167076D01*
X6259409Y-17167076D02*
X6164171Y-17167076D01*
X6154648Y-17262314D01*
X6164171Y-17252790D01*
X6183219Y-17243267D01*
X6230838Y-17243267D01*
X6249886Y-17252790D01*
X6259409Y-17262314D01*
X6268933Y-17281362D01*
X6268933Y-17328981D01*
X6259409Y-17348029D01*
X6249886Y-17357552D01*
X6230838Y-17367076D01*
X6183219Y-17367076D01*
X6164171Y-17357552D01*
X6154648Y-17348029D01*
X6449886Y-17167076D02*
X6354648Y-17167076D01*
X6345124Y-17262314D01*
X6354648Y-17252790D01*
X6373695Y-17243267D01*
X6421314Y-17243267D01*
X6440362Y-17252790D01*
X6449886Y-17262314D01*
X6459409Y-17281362D01*
X6459409Y-17328981D01*
X6449886Y-17348029D01*
X6440362Y-17357552D01*
X6421314Y-17367076D01*
X6373695Y-17367076D01*
X6354648Y-17357552D01*
X6345124Y-17348029D01*
X6583219Y-17167076D02*
X6602267Y-17167076D01*
X6621314Y-17176600D01*
X6630838Y-17186124D01*
X6640362Y-17205171D01*
X6649886Y-17243267D01*
X6649886Y-17290886D01*
X6640362Y-17328981D01*
X6630838Y-17348029D01*
X6621314Y-17357552D01*
X6602267Y-17367076D01*
X6583219Y-17367076D01*
X6564171Y-17357552D01*
X6554648Y-17348029D01*
X6545124Y-17328981D01*
X6535600Y-17290886D01*
X6535600Y-17243267D01*
X6545124Y-17205171D01*
X6554648Y-17186124D01*
X6564171Y-17176600D01*
X6583219Y-17167076D01*
X6726076Y-17167076D02*
X6726076Y-17205171D01*
X6802267Y-17167076D02*
X6802267Y-17205171D01*
X7097505Y-17443267D02*
X7087981Y-17433743D01*
X7068933Y-17405171D01*
X7059409Y-17386124D01*
X7049886Y-17357552D01*
X7040362Y-17309933D01*
X7040362Y-17271838D01*
X7049886Y-17224219D01*
X7059409Y-17195648D01*
X7068933Y-17176600D01*
X7087981Y-17148029D01*
X7097505Y-17138505D01*
X7164171Y-17186124D02*
X7173695Y-17176600D01*
X7192743Y-17167076D01*
X7240362Y-17167076D01*
X7259409Y-17176600D01*
X7268933Y-17186124D01*
X7278457Y-17205171D01*
X7278457Y-17224219D01*
X7268933Y-17252790D01*
X7154648Y-17367076D01*
X7278457Y-17367076D01*
X7516552Y-17367076D02*
X7516552Y-17167076D01*
X7602267Y-17367076D02*
X7602267Y-17262314D01*
X7592743Y-17243267D01*
X7573695Y-17233743D01*
X7545124Y-17233743D01*
X7526076Y-17243267D01*
X7516552Y-17252790D01*
X7726076Y-17367076D02*
X7707028Y-17357552D01*
X7697505Y-17348029D01*
X7687981Y-17328981D01*
X7687981Y-17271838D01*
X7697505Y-17252790D01*
X7707028Y-17243267D01*
X7726076Y-17233743D01*
X7754648Y-17233743D01*
X7773695Y-17243267D01*
X7783219Y-17252790D01*
X7792743Y-17271838D01*
X7792743Y-17328981D01*
X7783219Y-17348029D01*
X7773695Y-17357552D01*
X7754648Y-17367076D01*
X7726076Y-17367076D01*
X7907028Y-17367076D02*
X7887981Y-17357552D01*
X7878457Y-17338505D01*
X7878457Y-17167076D01*
X8059409Y-17357552D02*
X8040362Y-17367076D01*
X8002267Y-17367076D01*
X7983219Y-17357552D01*
X7973695Y-17338505D01*
X7973695Y-17262314D01*
X7983219Y-17243267D01*
X8002267Y-17233743D01*
X8040362Y-17233743D01*
X8059409Y-17243267D01*
X8068933Y-17262314D01*
X8068933Y-17281362D01*
X7973695Y-17300410D01*
X8145124Y-17357552D02*
X8164171Y-17367076D01*
X8202267Y-17367076D01*
X8221314Y-17357552D01*
X8230838Y-17338505D01*
X8230838Y-17328981D01*
X8221314Y-17309933D01*
X8202267Y-17300410D01*
X8173695Y-17300410D01*
X8154648Y-17290886D01*
X8145124Y-17271838D01*
X8145124Y-17262314D01*
X8154648Y-17243267D01*
X8173695Y-17233743D01*
X8202267Y-17233743D01*
X8221314Y-17243267D01*
X8297505Y-17443267D02*
X8307028Y-17433743D01*
X8326076Y-17405171D01*
X8335600Y-17386124D01*
X8345124Y-17357552D01*
X8354648Y-17309933D01*
X8354648Y-17271838D01*
X8345124Y-17224219D01*
X8335600Y-17195648D01*
X8326076Y-17176600D01*
X8307028Y-17148029D01*
X8297505Y-17138505D01*
D14*
X3497703Y-17607953D02*
X3497703Y-17473247D01*
X3362997Y-17473247D01*
X3362997Y-17607953D01*
X3497703Y-17607953D01*
D11*
X3887981Y-17631076D02*
X3773695Y-17631076D01*
X3830838Y-17631076D02*
X3830838Y-17431076D01*
X3811790Y-17459648D01*
X3792743Y-17478695D01*
X3773695Y-17488219D01*
X3973695Y-17612029D02*
X3983219Y-17621552D01*
X3973695Y-17631076D01*
X3964171Y-17621552D01*
X3973695Y-17612029D01*
X3973695Y-17631076D01*
X4078457Y-17631076D02*
X4116552Y-17631076D01*
X4135600Y-17621552D01*
X4145124Y-17612029D01*
X4164171Y-17583457D01*
X4173695Y-17545362D01*
X4173695Y-17469171D01*
X4164171Y-17450124D01*
X4154648Y-17440600D01*
X4135600Y-17431076D01*
X4097505Y-17431076D01*
X4078457Y-17440600D01*
X4068933Y-17450124D01*
X4059409Y-17469171D01*
X4059409Y-17516790D01*
X4068933Y-17535838D01*
X4078457Y-17545362D01*
X4097505Y-17554886D01*
X4135600Y-17554886D01*
X4154648Y-17545362D01*
X4164171Y-17535838D01*
X4173695Y-17516790D01*
X4297505Y-17431076D02*
X4316552Y-17431076D01*
X4335600Y-17440600D01*
X4345124Y-17450124D01*
X4354648Y-17469171D01*
X4364171Y-17507267D01*
X4364171Y-17554886D01*
X4354648Y-17592981D01*
X4345124Y-17612029D01*
X4335600Y-17621552D01*
X4316552Y-17631076D01*
X4297505Y-17631076D01*
X4278457Y-17621552D01*
X4268933Y-17612029D01*
X4259410Y-17592981D01*
X4249886Y-17554886D01*
X4249886Y-17507267D01*
X4259410Y-17469171D01*
X4268933Y-17450124D01*
X4278457Y-17440600D01*
X4297505Y-17431076D01*
X4545124Y-17431076D02*
X4449886Y-17431076D01*
X4440362Y-17526314D01*
X4449886Y-17516790D01*
X4468933Y-17507267D01*
X4516552Y-17507267D01*
X4535600Y-17516790D01*
X4545124Y-17526314D01*
X4554648Y-17545362D01*
X4554648Y-17592981D01*
X4545124Y-17612029D01*
X4535600Y-17621552D01*
X4516552Y-17631076D01*
X4468933Y-17631076D01*
X4449886Y-17621552D01*
X4440362Y-17612029D01*
X4640362Y-17631076D02*
X4640362Y-17497743D01*
X4640362Y-17516790D02*
X4649886Y-17507267D01*
X4668933Y-17497743D01*
X4697505Y-17497743D01*
X4716552Y-17507267D01*
X4726076Y-17526314D01*
X4726076Y-17631076D01*
X4726076Y-17526314D02*
X4735600Y-17507267D01*
X4754648Y-17497743D01*
X4783219Y-17497743D01*
X4802267Y-17507267D01*
X4811790Y-17526314D01*
X4811790Y-17631076D01*
X4907029Y-17631076D02*
X4907029Y-17497743D01*
X4907029Y-17516790D02*
X4916552Y-17507267D01*
X4935600Y-17497743D01*
X4964171Y-17497743D01*
X4983219Y-17507267D01*
X4992743Y-17526314D01*
X4992743Y-17631076D01*
X4992743Y-17526314D02*
X5002267Y-17507267D01*
X5021314Y-17497743D01*
X5049886Y-17497743D01*
X5068933Y-17507267D01*
X5078457Y-17526314D01*
X5078457Y-17631076D01*
X5468933Y-17421552D02*
X5297505Y-17678695D01*
X5726076Y-17431076D02*
X5745124Y-17431076D01*
X5764171Y-17440600D01*
X5773695Y-17450124D01*
X5783219Y-17469171D01*
X5792743Y-17507267D01*
X5792743Y-17554886D01*
X5783219Y-17592981D01*
X5773695Y-17612029D01*
X5764171Y-17621552D01*
X5745124Y-17631076D01*
X5726076Y-17631076D01*
X5707028Y-17621552D01*
X5697505Y-17612029D01*
X5687981Y-17592981D01*
X5678457Y-17554886D01*
X5678457Y-17507267D01*
X5687981Y-17469171D01*
X5697505Y-17450124D01*
X5707028Y-17440600D01*
X5726076Y-17431076D01*
X5878457Y-17612029D02*
X5887981Y-17621552D01*
X5878457Y-17631076D01*
X5868933Y-17621552D01*
X5878457Y-17612029D01*
X5878457Y-17631076D01*
X6011790Y-17431076D02*
X6030838Y-17431076D01*
X6049886Y-17440600D01*
X6059409Y-17450124D01*
X6068933Y-17469171D01*
X6078457Y-17507267D01*
X6078457Y-17554886D01*
X6068933Y-17592981D01*
X6059409Y-17612029D01*
X6049886Y-17621552D01*
X6030838Y-17631076D01*
X6011790Y-17631076D01*
X5992743Y-17621552D01*
X5983219Y-17612029D01*
X5973695Y-17592981D01*
X5964171Y-17554886D01*
X5964171Y-17507267D01*
X5973695Y-17469171D01*
X5983219Y-17450124D01*
X5992743Y-17440600D01*
X6011790Y-17431076D01*
X6145124Y-17431076D02*
X6278457Y-17431076D01*
X6192743Y-17631076D01*
X6449886Y-17431076D02*
X6354648Y-17431076D01*
X6345124Y-17526314D01*
X6354648Y-17516790D01*
X6373695Y-17507267D01*
X6421314Y-17507267D01*
X6440362Y-17516790D01*
X6449886Y-17526314D01*
X6459409Y-17545362D01*
X6459409Y-17592981D01*
X6449886Y-17612029D01*
X6440362Y-17621552D01*
X6421314Y-17631076D01*
X6373695Y-17631076D01*
X6354648Y-17621552D01*
X6345124Y-17612029D01*
X6583219Y-17431076D02*
X6602267Y-17431076D01*
X6621314Y-17440600D01*
X6630838Y-17450124D01*
X6640362Y-17469171D01*
X6649886Y-17507267D01*
X6649886Y-17554886D01*
X6640362Y-17592981D01*
X6630838Y-17612029D01*
X6621314Y-17621552D01*
X6602267Y-17631076D01*
X6583219Y-17631076D01*
X6564171Y-17621552D01*
X6554648Y-17612029D01*
X6545124Y-17592981D01*
X6535600Y-17554886D01*
X6535600Y-17507267D01*
X6545124Y-17469171D01*
X6554648Y-17450124D01*
X6564171Y-17440600D01*
X6583219Y-17431076D01*
X6726076Y-17431076D02*
X6726076Y-17469171D01*
X6802267Y-17431076D02*
X6802267Y-17469171D01*
X7097505Y-17707267D02*
X7087981Y-17697743D01*
X7068933Y-17669171D01*
X7059409Y-17650124D01*
X7049886Y-17621552D01*
X7040362Y-17573933D01*
X7040362Y-17535838D01*
X7049886Y-17488219D01*
X7059409Y-17459648D01*
X7068933Y-17440600D01*
X7087981Y-17412029D01*
X7097505Y-17402505D01*
X7164171Y-17450124D02*
X7173695Y-17440600D01*
X7192743Y-17431076D01*
X7240362Y-17431076D01*
X7259409Y-17440600D01*
X7268933Y-17450124D01*
X7278457Y-17469171D01*
X7278457Y-17488219D01*
X7268933Y-17516790D01*
X7154648Y-17631076D01*
X7278457Y-17631076D01*
X7516552Y-17631076D02*
X7516552Y-17431076D01*
X7602267Y-17631076D02*
X7602267Y-17526314D01*
X7592743Y-17507267D01*
X7573695Y-17497743D01*
X7545124Y-17497743D01*
X7526076Y-17507267D01*
X7516552Y-17516790D01*
X7726076Y-17631076D02*
X7707028Y-17621552D01*
X7697505Y-17612029D01*
X7687981Y-17592981D01*
X7687981Y-17535838D01*
X7697505Y-17516790D01*
X7707028Y-17507267D01*
X7726076Y-17497743D01*
X7754648Y-17497743D01*
X7773695Y-17507267D01*
X7783219Y-17516790D01*
X7792743Y-17535838D01*
X7792743Y-17592981D01*
X7783219Y-17612029D01*
X7773695Y-17621552D01*
X7754648Y-17631076D01*
X7726076Y-17631076D01*
X7907028Y-17631076D02*
X7887981Y-17621552D01*
X7878457Y-17602505D01*
X7878457Y-17431076D01*
X8059409Y-17621552D02*
X8040362Y-17631076D01*
X8002267Y-17631076D01*
X7983219Y-17621552D01*
X7973695Y-17602505D01*
X7973695Y-17526314D01*
X7983219Y-17507267D01*
X8002267Y-17497743D01*
X8040362Y-17497743D01*
X8059409Y-17507267D01*
X8068933Y-17526314D01*
X8068933Y-17545362D01*
X7973695Y-17564410D01*
X8145124Y-17621552D02*
X8164171Y-17631076D01*
X8202267Y-17631076D01*
X8221314Y-17621552D01*
X8230838Y-17602505D01*
X8230838Y-17592981D01*
X8221314Y-17573933D01*
X8202267Y-17564410D01*
X8173695Y-17564410D01*
X8154648Y-17554886D01*
X8145124Y-17535838D01*
X8145124Y-17526314D01*
X8154648Y-17507267D01*
X8173695Y-17497743D01*
X8202267Y-17497743D01*
X8221314Y-17507267D01*
X8297505Y-17707267D02*
X8307028Y-17697743D01*
X8326076Y-17669171D01*
X8335600Y-17650124D01*
X8345124Y-17621552D01*
X8354648Y-17573933D01*
X8354648Y-17535838D01*
X8345124Y-17488219D01*
X8335600Y-17459648D01*
X8326076Y-17440600D01*
X8307028Y-17412029D01*
X8297505Y-17402505D01*
X3425600Y-17951100D02*
X3525600Y-17851100D01*
X3425600Y-17751100D01*
X3325600Y-17851100D01*
X3425600Y-17951100D01*
X3773695Y-17760624D02*
X3783219Y-17751100D01*
X3802267Y-17741576D01*
X3849886Y-17741576D01*
X3868933Y-17751100D01*
X3878457Y-17760624D01*
X3887981Y-17779671D01*
X3887981Y-17798719D01*
X3878457Y-17827290D01*
X3764171Y-17941576D01*
X3887981Y-17941576D01*
X3973695Y-17922529D02*
X3983219Y-17932052D01*
X3973695Y-17941576D01*
X3964171Y-17932052D01*
X3973695Y-17922529D01*
X3973695Y-17941576D01*
X4107028Y-17741576D02*
X4126076Y-17741576D01*
X4145124Y-17751100D01*
X4154648Y-17760624D01*
X4164171Y-17779671D01*
X4173695Y-17817767D01*
X4173695Y-17865386D01*
X4164171Y-17903481D01*
X4154648Y-17922529D01*
X4145124Y-17932052D01*
X4126076Y-17941576D01*
X4107028Y-17941576D01*
X4087981Y-17932052D01*
X4078457Y-17922529D01*
X4068933Y-17903481D01*
X4059409Y-17865386D01*
X4059409Y-17817767D01*
X4068933Y-17779671D01*
X4078457Y-17760624D01*
X4087981Y-17751100D01*
X4107028Y-17741576D01*
X4240362Y-17741576D02*
X4364171Y-17741576D01*
X4297505Y-17817767D01*
X4326076Y-17817767D01*
X4345124Y-17827290D01*
X4354648Y-17836814D01*
X4364171Y-17855862D01*
X4364171Y-17903481D01*
X4354648Y-17922529D01*
X4345124Y-17932052D01*
X4326076Y-17941576D01*
X4268933Y-17941576D01*
X4249886Y-17932052D01*
X4240362Y-17922529D01*
X4440362Y-17760624D02*
X4449886Y-17751100D01*
X4468933Y-17741576D01*
X4516552Y-17741576D01*
X4535600Y-17751100D01*
X4545124Y-17760624D01*
X4554648Y-17779671D01*
X4554648Y-17798719D01*
X4545124Y-17827290D01*
X4430838Y-17941576D01*
X4554648Y-17941576D01*
X4640362Y-17941576D02*
X4640362Y-17808243D01*
X4640362Y-17827290D02*
X4649886Y-17817767D01*
X4668933Y-17808243D01*
X4697505Y-17808243D01*
X4716552Y-17817767D01*
X4726076Y-17836814D01*
X4726076Y-17941576D01*
X4726076Y-17836814D02*
X4735600Y-17817767D01*
X4754648Y-17808243D01*
X4783219Y-17808243D01*
X4802267Y-17817767D01*
X4811790Y-17836814D01*
X4811790Y-17941576D01*
X4907029Y-17941576D02*
X4907029Y-17808243D01*
X4907029Y-17827290D02*
X4916552Y-17817767D01*
X4935600Y-17808243D01*
X4964171Y-17808243D01*
X4983219Y-17817767D01*
X4992743Y-17836814D01*
X4992743Y-17941576D01*
X4992743Y-17836814D02*
X5002267Y-17817767D01*
X5021314Y-17808243D01*
X5049886Y-17808243D01*
X5068933Y-17817767D01*
X5078457Y-17836814D01*
X5078457Y-17941576D01*
X5468933Y-17732052D02*
X5297505Y-17989195D01*
X5726076Y-17741576D02*
X5745124Y-17741576D01*
X5764171Y-17751100D01*
X5773695Y-17760624D01*
X5783219Y-17779671D01*
X5792743Y-17817767D01*
X5792743Y-17865386D01*
X5783219Y-17903481D01*
X5773695Y-17922529D01*
X5764171Y-17932052D01*
X5745124Y-17941576D01*
X5726076Y-17941576D01*
X5707028Y-17932052D01*
X5697505Y-17922529D01*
X5687981Y-17903481D01*
X5678457Y-17865386D01*
X5678457Y-17817767D01*
X5687981Y-17779671D01*
X5697505Y-17760624D01*
X5707028Y-17751100D01*
X5726076Y-17741576D01*
X5878457Y-17922529D02*
X5887981Y-17932052D01*
X5878457Y-17941576D01*
X5868933Y-17932052D01*
X5878457Y-17922529D01*
X5878457Y-17941576D01*
X6011790Y-17741576D02*
X6030838Y-17741576D01*
X6049886Y-17751100D01*
X6059409Y-17760624D01*
X6068933Y-17779671D01*
X6078457Y-17817767D01*
X6078457Y-17865386D01*
X6068933Y-17903481D01*
X6059409Y-17922529D01*
X6049886Y-17932052D01*
X6030838Y-17941576D01*
X6011790Y-17941576D01*
X5992743Y-17932052D01*
X5983219Y-17922529D01*
X5973695Y-17903481D01*
X5964171Y-17865386D01*
X5964171Y-17817767D01*
X5973695Y-17779671D01*
X5983219Y-17760624D01*
X5992743Y-17751100D01*
X6011790Y-17741576D01*
X6192743Y-17827290D02*
X6173695Y-17817767D01*
X6164171Y-17808243D01*
X6154648Y-17789195D01*
X6154648Y-17779671D01*
X6164171Y-17760624D01*
X6173695Y-17751100D01*
X6192743Y-17741576D01*
X6230838Y-17741576D01*
X6249886Y-17751100D01*
X6259409Y-17760624D01*
X6268933Y-17779671D01*
X6268933Y-17789195D01*
X6259409Y-17808243D01*
X6249886Y-17817767D01*
X6230838Y-17827290D01*
X6192743Y-17827290D01*
X6173695Y-17836814D01*
X6164171Y-17846338D01*
X6154648Y-17865386D01*
X6154648Y-17903481D01*
X6164171Y-17922529D01*
X6173695Y-17932052D01*
X6192743Y-17941576D01*
X6230838Y-17941576D01*
X6249886Y-17932052D01*
X6259409Y-17922529D01*
X6268933Y-17903481D01*
X6268933Y-17865386D01*
X6259409Y-17846338D01*
X6249886Y-17836814D01*
X6230838Y-17827290D01*
X6392743Y-17741576D02*
X6411790Y-17741576D01*
X6430838Y-17751100D01*
X6440362Y-17760624D01*
X6449886Y-17779671D01*
X6459409Y-17817767D01*
X6459409Y-17865386D01*
X6449886Y-17903481D01*
X6440362Y-17922529D01*
X6430838Y-17932052D01*
X6411790Y-17941576D01*
X6392743Y-17941576D01*
X6373695Y-17932052D01*
X6364171Y-17922529D01*
X6354648Y-17903481D01*
X6345124Y-17865386D01*
X6345124Y-17817767D01*
X6354648Y-17779671D01*
X6364171Y-17760624D01*
X6373695Y-17751100D01*
X6392743Y-17741576D01*
X6583219Y-17741576D02*
X6602267Y-17741576D01*
X6621314Y-17751100D01*
X6630838Y-17760624D01*
X6640362Y-17779671D01*
X6649886Y-17817767D01*
X6649886Y-17865386D01*
X6640362Y-17903481D01*
X6630838Y-17922529D01*
X6621314Y-17932052D01*
X6602267Y-17941576D01*
X6583219Y-17941576D01*
X6564171Y-17932052D01*
X6554648Y-17922529D01*
X6545124Y-17903481D01*
X6535600Y-17865386D01*
X6535600Y-17817767D01*
X6545124Y-17779671D01*
X6554648Y-17760624D01*
X6564171Y-17751100D01*
X6583219Y-17741576D01*
X6726076Y-17741576D02*
X6726076Y-17779671D01*
X6802267Y-17741576D02*
X6802267Y-17779671D01*
X7097505Y-18017767D02*
X7087981Y-18008243D01*
X7068933Y-17979671D01*
X7059409Y-17960624D01*
X7049886Y-17932052D01*
X7040362Y-17884433D01*
X7040362Y-17846338D01*
X7049886Y-17798719D01*
X7059409Y-17770148D01*
X7068933Y-17751100D01*
X7087981Y-17722529D01*
X7097505Y-17713005D01*
X7278457Y-17941576D02*
X7164171Y-17941576D01*
X7221314Y-17941576D02*
X7221314Y-17741576D01*
X7202267Y-17770148D01*
X7183219Y-17789195D01*
X7164171Y-17798719D01*
X7449886Y-17741576D02*
X7411790Y-17741576D01*
X7392743Y-17751100D01*
X7383219Y-17760624D01*
X7364171Y-17789195D01*
X7354648Y-17827290D01*
X7354648Y-17903481D01*
X7364171Y-17922529D01*
X7373695Y-17932052D01*
X7392743Y-17941576D01*
X7430838Y-17941576D01*
X7449886Y-17932052D01*
X7459409Y-17922529D01*
X7468933Y-17903481D01*
X7468933Y-17855862D01*
X7459409Y-17836814D01*
X7449886Y-17827290D01*
X7430838Y-17817767D01*
X7392743Y-17817767D01*
X7373695Y-17827290D01*
X7364171Y-17836814D01*
X7354648Y-17855862D01*
X7707028Y-17941576D02*
X7707028Y-17741576D01*
X7792743Y-17941576D02*
X7792743Y-17836814D01*
X7783219Y-17817767D01*
X7764171Y-17808243D01*
X7735600Y-17808243D01*
X7716552Y-17817767D01*
X7707028Y-17827290D01*
X7916552Y-17941576D02*
X7897505Y-17932052D01*
X7887981Y-17922529D01*
X7878457Y-17903481D01*
X7878457Y-17846338D01*
X7887981Y-17827290D01*
X7897505Y-17817767D01*
X7916552Y-17808243D01*
X7945124Y-17808243D01*
X7964171Y-17817767D01*
X7973695Y-17827290D01*
X7983219Y-17846338D01*
X7983219Y-17903481D01*
X7973695Y-17922529D01*
X7964171Y-17932052D01*
X7945124Y-17941576D01*
X7916552Y-17941576D01*
X8097505Y-17941576D02*
X8078457Y-17932052D01*
X8068933Y-17913005D01*
X8068933Y-17741576D01*
X8249886Y-17932052D02*
X8230838Y-17941576D01*
X8192743Y-17941576D01*
X8173695Y-17932052D01*
X8164171Y-17913005D01*
X8164171Y-17836814D01*
X8173695Y-17817767D01*
X8192743Y-17808243D01*
X8230838Y-17808243D01*
X8249886Y-17817767D01*
X8259409Y-17836814D01*
X8259409Y-17855862D01*
X8164171Y-17874910D01*
X8335600Y-17932052D02*
X8354648Y-17941576D01*
X8392743Y-17941576D01*
X8411790Y-17932052D01*
X8421314Y-17913005D01*
X8421314Y-17903481D01*
X8411790Y-17884433D01*
X8392743Y-17874910D01*
X8364171Y-17874910D01*
X8345124Y-17865386D01*
X8335600Y-17846338D01*
X8335600Y-17836814D01*
X8345124Y-17817767D01*
X8364171Y-17808243D01*
X8392743Y-17808243D01*
X8411790Y-17817767D01*
X8487981Y-18017767D02*
X8497505Y-18008243D01*
X8516552Y-17979671D01*
X8526076Y-17960624D01*
X8535600Y-17932052D01*
X8545124Y-17884433D01*
X8545124Y-17846338D01*
X8535600Y-17798719D01*
X8526076Y-17770148D01*
X8516552Y-17751100D01*
X8497505Y-17722529D01*
X8487981Y-17713005D01*
X3325600Y-18071100D02*
X3525600Y-18271100D01*
X3525600Y-18071100D02*
X3325600Y-18271100D01*
X3525600Y-18171100D02*
G75*
G03*
X3525600Y-18171100I-100000J0D01*
G01*
X3764171Y-18061576D02*
X3887981Y-18061576D01*
X3821314Y-18137767D01*
X3849886Y-18137767D01*
X3868933Y-18147290D01*
X3878457Y-18156814D01*
X3887981Y-18175862D01*
X3887981Y-18223481D01*
X3878457Y-18242529D01*
X3868933Y-18252052D01*
X3849886Y-18261576D01*
X3792743Y-18261576D01*
X3773695Y-18252052D01*
X3764171Y-18242529D01*
X3973695Y-18242529D02*
X3983219Y-18252052D01*
X3973695Y-18261576D01*
X3964171Y-18252052D01*
X3973695Y-18242529D01*
X3973695Y-18261576D01*
X4173695Y-18261576D02*
X4059409Y-18261576D01*
X4116552Y-18261576D02*
X4116552Y-18061576D01*
X4097505Y-18090148D01*
X4078457Y-18109195D01*
X4059409Y-18118719D01*
X4240362Y-18061576D02*
X4373695Y-18061576D01*
X4287981Y-18261576D01*
X4545124Y-18061576D02*
X4449886Y-18061576D01*
X4440362Y-18156814D01*
X4449886Y-18147290D01*
X4468933Y-18137767D01*
X4516552Y-18137767D01*
X4535600Y-18147290D01*
X4545124Y-18156814D01*
X4554648Y-18175862D01*
X4554648Y-18223481D01*
X4545124Y-18242529D01*
X4535600Y-18252052D01*
X4516552Y-18261576D01*
X4468933Y-18261576D01*
X4449886Y-18252052D01*
X4440362Y-18242529D01*
X4640362Y-18261576D02*
X4640362Y-18128243D01*
X4640362Y-18147290D02*
X4649886Y-18137767D01*
X4668933Y-18128243D01*
X4697505Y-18128243D01*
X4716552Y-18137767D01*
X4726076Y-18156814D01*
X4726076Y-18261576D01*
X4726076Y-18156814D02*
X4735600Y-18137767D01*
X4754648Y-18128243D01*
X4783219Y-18128243D01*
X4802267Y-18137767D01*
X4811790Y-18156814D01*
X4811790Y-18261576D01*
X4907029Y-18261576D02*
X4907029Y-18128243D01*
X4907029Y-18147290D02*
X4916552Y-18137767D01*
X4935600Y-18128243D01*
X4964171Y-18128243D01*
X4983219Y-18137767D01*
X4992743Y-18156814D01*
X4992743Y-18261576D01*
X4992743Y-18156814D02*
X5002267Y-18137767D01*
X5021314Y-18128243D01*
X5049886Y-18128243D01*
X5068933Y-18137767D01*
X5078457Y-18156814D01*
X5078457Y-18261576D01*
X5468933Y-18052052D02*
X5297505Y-18309195D01*
X5726076Y-18061576D02*
X5745124Y-18061576D01*
X5764171Y-18071100D01*
X5773695Y-18080624D01*
X5783219Y-18099671D01*
X5792743Y-18137767D01*
X5792743Y-18185386D01*
X5783219Y-18223481D01*
X5773695Y-18242529D01*
X5764171Y-18252052D01*
X5745124Y-18261576D01*
X5726076Y-18261576D01*
X5707028Y-18252052D01*
X5697505Y-18242529D01*
X5687981Y-18223481D01*
X5678457Y-18185386D01*
X5678457Y-18137767D01*
X5687981Y-18099671D01*
X5697505Y-18080624D01*
X5707028Y-18071100D01*
X5726076Y-18061576D01*
X5878457Y-18242529D02*
X5887981Y-18252052D01*
X5878457Y-18261576D01*
X5868933Y-18252052D01*
X5878457Y-18242529D01*
X5878457Y-18261576D01*
X6078457Y-18261576D02*
X5964171Y-18261576D01*
X6021314Y-18261576D02*
X6021314Y-18061576D01*
X6002267Y-18090148D01*
X5983219Y-18109195D01*
X5964171Y-18118719D01*
X6154648Y-18080624D02*
X6164171Y-18071100D01*
X6183219Y-18061576D01*
X6230838Y-18061576D01*
X6249886Y-18071100D01*
X6259409Y-18080624D01*
X6268933Y-18099671D01*
X6268933Y-18118719D01*
X6259409Y-18147290D01*
X6145124Y-18261576D01*
X6268933Y-18261576D01*
X6449886Y-18061576D02*
X6354648Y-18061576D01*
X6345124Y-18156814D01*
X6354648Y-18147290D01*
X6373695Y-18137767D01*
X6421314Y-18137767D01*
X6440362Y-18147290D01*
X6449886Y-18156814D01*
X6459409Y-18175862D01*
X6459409Y-18223481D01*
X6449886Y-18242529D01*
X6440362Y-18252052D01*
X6421314Y-18261576D01*
X6373695Y-18261576D01*
X6354648Y-18252052D01*
X6345124Y-18242529D01*
X6583219Y-18061576D02*
X6602267Y-18061576D01*
X6621314Y-18071100D01*
X6630838Y-18080624D01*
X6640362Y-18099671D01*
X6649886Y-18137767D01*
X6649886Y-18185386D01*
X6640362Y-18223481D01*
X6630838Y-18242529D01*
X6621314Y-18252052D01*
X6602267Y-18261576D01*
X6583219Y-18261576D01*
X6564171Y-18252052D01*
X6554648Y-18242529D01*
X6545124Y-18223481D01*
X6535600Y-18185386D01*
X6535600Y-18137767D01*
X6545124Y-18099671D01*
X6554648Y-18080624D01*
X6564171Y-18071100D01*
X6583219Y-18061576D01*
X6726076Y-18061576D02*
X6726076Y-18099671D01*
X6802267Y-18061576D02*
X6802267Y-18099671D01*
X7097505Y-18337767D02*
X7087981Y-18328243D01*
X7068933Y-18299671D01*
X7059409Y-18280624D01*
X7049886Y-18252052D01*
X7040362Y-18204433D01*
X7040362Y-18166338D01*
X7049886Y-18118719D01*
X7059409Y-18090148D01*
X7068933Y-18071100D01*
X7087981Y-18042529D01*
X7097505Y-18033005D01*
X7164171Y-18080624D02*
X7173695Y-18071100D01*
X7192743Y-18061576D01*
X7240362Y-18061576D01*
X7259409Y-18071100D01*
X7268933Y-18080624D01*
X7278457Y-18099671D01*
X7278457Y-18118719D01*
X7268933Y-18147290D01*
X7154648Y-18261576D01*
X7278457Y-18261576D01*
X7516552Y-18261576D02*
X7516552Y-18061576D01*
X7602267Y-18261576D02*
X7602267Y-18156814D01*
X7592743Y-18137767D01*
X7573695Y-18128243D01*
X7545124Y-18128243D01*
X7526076Y-18137767D01*
X7516552Y-18147290D01*
X7726076Y-18261576D02*
X7707028Y-18252052D01*
X7697505Y-18242529D01*
X7687981Y-18223481D01*
X7687981Y-18166338D01*
X7697505Y-18147290D01*
X7707028Y-18137767D01*
X7726076Y-18128243D01*
X7754648Y-18128243D01*
X7773695Y-18137767D01*
X7783219Y-18147290D01*
X7792743Y-18166338D01*
X7792743Y-18223481D01*
X7783219Y-18242529D01*
X7773695Y-18252052D01*
X7754648Y-18261576D01*
X7726076Y-18261576D01*
X7907028Y-18261576D02*
X7887981Y-18252052D01*
X7878457Y-18233005D01*
X7878457Y-18061576D01*
X8059409Y-18252052D02*
X8040362Y-18261576D01*
X8002267Y-18261576D01*
X7983219Y-18252052D01*
X7973695Y-18233005D01*
X7973695Y-18156814D01*
X7983219Y-18137767D01*
X8002267Y-18128243D01*
X8040362Y-18128243D01*
X8059409Y-18137767D01*
X8068933Y-18156814D01*
X8068933Y-18175862D01*
X7973695Y-18194910D01*
X8145124Y-18252052D02*
X8164171Y-18261576D01*
X8202267Y-18261576D01*
X8221314Y-18252052D01*
X8230838Y-18233005D01*
X8230838Y-18223481D01*
X8221314Y-18204433D01*
X8202267Y-18194910D01*
X8173695Y-18194910D01*
X8154648Y-18185386D01*
X8145124Y-18166338D01*
X8145124Y-18156814D01*
X8154648Y-18137767D01*
X8173695Y-18128243D01*
X8202267Y-18128243D01*
X8221314Y-18137767D01*
X8297505Y-18337767D02*
X8307028Y-18328243D01*
X8326076Y-18299671D01*
X8335600Y-18280624D01*
X8345124Y-18252052D01*
X8354648Y-18204433D01*
X8354648Y-18166338D01*
X8345124Y-18118719D01*
X8335600Y-18090148D01*
X8326076Y-18071100D01*
X8307028Y-18042529D01*
X8297505Y-18033005D01*
M02*
