%TF.GenerationSoftware,KiCad,Pcbnew,(6.0.10-0)*%
%TF.CreationDate,2023-01-03T15:39:17-08:00*%
%TF.ProjectId,lasagna-motherboard,6c617361-676e-4612-9d6d-6f7468657262,v0.1*%
%TF.SameCoordinates,Original*%
%TF.FileFunction,Drillmap*%
%TF.FilePolarity,Positive*%
%FSLAX45Y45*%
G04 Gerber Fmt 4.5, Leading zero omitted, Abs format (unit mm)*
G04 Created by KiCad (PCBNEW (6.0.10-0)) date 2023-01-03 15:39:17*
%MOMM*%
%LPD*%
G01*
G04 APERTURE LIST*
%ADD10C,0.100000*%
%ADD11C,0.200000*%
%ADD12C,0.250000*%
%ADD13C,0.275000*%
%ADD14C,0.330200*%
G04 APERTURE END LIST*
D10*
X26568400Y-14757400D02*
X26060400Y-14757400D01*
X26568400Y-15798800D02*
X26568400Y-14757400D01*
X26543000Y-6654800D02*
X26060400Y-6654800D01*
X3835400Y-16103600D02*
X26060400Y-16103600D01*
X3835400Y-8051800D02*
X3530600Y-8051800D01*
X26543000Y-7670800D02*
X26543000Y-6654800D01*
X3835400Y-14401800D02*
X3835400Y-16103600D01*
X26060400Y-6654800D02*
X26060400Y-6324600D01*
X26060400Y-11734800D02*
X26568400Y-11734800D01*
X3530600Y-14401800D02*
X3835400Y-14401800D01*
X26568400Y-11734800D02*
X26568400Y-10718800D01*
X26060400Y-10718800D02*
X26060400Y-7670800D01*
X26568400Y-10718800D02*
X26060400Y-10718800D01*
X3835400Y-6324600D02*
X3835400Y-8051800D01*
X26060400Y-15798800D02*
X26568400Y-15798800D01*
X26060400Y-7670800D02*
X26543000Y-7670800D01*
X26060400Y-16103600D02*
X26060400Y-15798800D01*
X3530600Y-8051800D02*
X3530600Y-14401800D01*
X26060400Y-14757400D02*
X26060400Y-11734800D01*
X26060400Y-6324600D02*
X3835400Y-6324600D01*
D11*
D12*
X21033200Y-13083000D02*
X21283200Y-13333000D01*
X21283200Y-13083000D02*
X21033200Y-13333000D01*
X21033200Y-14607000D02*
X21283200Y-14857000D01*
X21283200Y-14607000D02*
X21033200Y-14857000D01*
X23192200Y-13083000D02*
X23442200Y-13333000D01*
X23442200Y-13083000D02*
X23192200Y-13333000D01*
X23192200Y-14607000D02*
X23442200Y-14857000D01*
X23442200Y-14607000D02*
X23192200Y-14857000D01*
D13*
X17834300Y-7154400D02*
G75*
G03*
X17834300Y-7154400I-137500J0D01*
G01*
X17834300Y-15754400D02*
G75*
G03*
X17834300Y-15754400I-137500J0D01*
G01*
X23634300Y-7154400D02*
G75*
G03*
X23634300Y-7154400I-137500J0D01*
G01*
X23634300Y-15754400D02*
G75*
G03*
X23634300Y-15754400I-137500J0D01*
G01*
D14*
X16154400Y-8420100D02*
X16154400Y-8750300D01*
X15989300Y-8585200D02*
X16319500Y-8585200D01*
X16154400Y-14008100D02*
X16154400Y-14338300D01*
X15989300Y-14173200D02*
X16319500Y-14173200D01*
X18059400Y-8420100D02*
X18059400Y-8750300D01*
X17894300Y-8585200D02*
X18224500Y-8585200D01*
X18059400Y-14008100D02*
X18059400Y-14338300D01*
X17894300Y-14173200D02*
X18224500Y-14173200D01*
X19113500Y-6756400D02*
X19113500Y-7086600D01*
X18948400Y-6921500D02*
X19278600Y-6921500D01*
X19113500Y-10693400D02*
X19113500Y-11023600D01*
X18948400Y-10858500D02*
X19278600Y-10858500D01*
X24828500Y-6756400D02*
X24828500Y-7086600D01*
X24663400Y-6921500D02*
X24993600Y-6921500D01*
X24828500Y-10693400D02*
X24828500Y-11023600D01*
X24663400Y-10858500D02*
X24993600Y-10858500D01*
D11*
X3783219Y-16419076D02*
X3783219Y-16219076D01*
X3830838Y-16219076D01*
X3859409Y-16228600D01*
X3878457Y-16247648D01*
X3887981Y-16266695D01*
X3897505Y-16304790D01*
X3897505Y-16333362D01*
X3887981Y-16371457D01*
X3878457Y-16390505D01*
X3859409Y-16409552D01*
X3830838Y-16419076D01*
X3783219Y-16419076D01*
X3983219Y-16419076D02*
X3983219Y-16285743D01*
X3983219Y-16323838D02*
X3992743Y-16304790D01*
X4002267Y-16295267D01*
X4021314Y-16285743D01*
X4040362Y-16285743D01*
X4107028Y-16419076D02*
X4107028Y-16285743D01*
X4107028Y-16219076D02*
X4097505Y-16228600D01*
X4107028Y-16238124D01*
X4116552Y-16228600D01*
X4107028Y-16219076D01*
X4107028Y-16238124D01*
X4230838Y-16419076D02*
X4211790Y-16409552D01*
X4202267Y-16390505D01*
X4202267Y-16219076D01*
X4335600Y-16419076D02*
X4316552Y-16409552D01*
X4307029Y-16390505D01*
X4307029Y-16219076D01*
X4564171Y-16419076D02*
X4564171Y-16219076D01*
X4630838Y-16361933D01*
X4697505Y-16219076D01*
X4697505Y-16419076D01*
X4878457Y-16419076D02*
X4878457Y-16314314D01*
X4868933Y-16295267D01*
X4849886Y-16285743D01*
X4811790Y-16285743D01*
X4792743Y-16295267D01*
X4878457Y-16409552D02*
X4859410Y-16419076D01*
X4811790Y-16419076D01*
X4792743Y-16409552D01*
X4783219Y-16390505D01*
X4783219Y-16371457D01*
X4792743Y-16352409D01*
X4811790Y-16342886D01*
X4859410Y-16342886D01*
X4878457Y-16333362D01*
X4973695Y-16285743D02*
X4973695Y-16485743D01*
X4973695Y-16295267D02*
X4992743Y-16285743D01*
X5030838Y-16285743D01*
X5049886Y-16295267D01*
X5059410Y-16304790D01*
X5068933Y-16323838D01*
X5068933Y-16380981D01*
X5059410Y-16400028D01*
X5049886Y-16409552D01*
X5030838Y-16419076D01*
X4992743Y-16419076D01*
X4973695Y-16409552D01*
X5154648Y-16400028D02*
X5164171Y-16409552D01*
X5154648Y-16419076D01*
X5145124Y-16409552D01*
X5154648Y-16400028D01*
X5154648Y-16419076D01*
X5154648Y-16295267D02*
X5164171Y-16304790D01*
X5154648Y-16314314D01*
X5145124Y-16304790D01*
X5154648Y-16295267D01*
X5154648Y-16314314D01*
X3325600Y-16648600D02*
X3525600Y-16848600D01*
X3525600Y-16648600D02*
X3325600Y-16848600D01*
X3773695Y-16658124D02*
X3783219Y-16648600D01*
X3802267Y-16639076D01*
X3849886Y-16639076D01*
X3868933Y-16648600D01*
X3878457Y-16658124D01*
X3887981Y-16677171D01*
X3887981Y-16696219D01*
X3878457Y-16724790D01*
X3764171Y-16839076D01*
X3887981Y-16839076D01*
X3973695Y-16820029D02*
X3983219Y-16829552D01*
X3973695Y-16839076D01*
X3964171Y-16829552D01*
X3973695Y-16820029D01*
X3973695Y-16839076D01*
X4164171Y-16639076D02*
X4068933Y-16639076D01*
X4059409Y-16734314D01*
X4068933Y-16724790D01*
X4087981Y-16715267D01*
X4135600Y-16715267D01*
X4154648Y-16724790D01*
X4164171Y-16734314D01*
X4173695Y-16753362D01*
X4173695Y-16800981D01*
X4164171Y-16820029D01*
X4154648Y-16829552D01*
X4135600Y-16839076D01*
X4087981Y-16839076D01*
X4068933Y-16829552D01*
X4059409Y-16820029D01*
X4297505Y-16639076D02*
X4316552Y-16639076D01*
X4335600Y-16648600D01*
X4345124Y-16658124D01*
X4354648Y-16677171D01*
X4364171Y-16715267D01*
X4364171Y-16762886D01*
X4354648Y-16800981D01*
X4345124Y-16820029D01*
X4335600Y-16829552D01*
X4316552Y-16839076D01*
X4297505Y-16839076D01*
X4278457Y-16829552D01*
X4268933Y-16820029D01*
X4259410Y-16800981D01*
X4249886Y-16762886D01*
X4249886Y-16715267D01*
X4259410Y-16677171D01*
X4268933Y-16658124D01*
X4278457Y-16648600D01*
X4297505Y-16639076D01*
X4487981Y-16639076D02*
X4507029Y-16639076D01*
X4526076Y-16648600D01*
X4535600Y-16658124D01*
X4545124Y-16677171D01*
X4554648Y-16715267D01*
X4554648Y-16762886D01*
X4545124Y-16800981D01*
X4535600Y-16820029D01*
X4526076Y-16829552D01*
X4507029Y-16839076D01*
X4487981Y-16839076D01*
X4468933Y-16829552D01*
X4459410Y-16820029D01*
X4449886Y-16800981D01*
X4440362Y-16762886D01*
X4440362Y-16715267D01*
X4449886Y-16677171D01*
X4459410Y-16658124D01*
X4468933Y-16648600D01*
X4487981Y-16639076D01*
X4640362Y-16839076D02*
X4640362Y-16705743D01*
X4640362Y-16724790D02*
X4649886Y-16715267D01*
X4668933Y-16705743D01*
X4697505Y-16705743D01*
X4716552Y-16715267D01*
X4726076Y-16734314D01*
X4726076Y-16839076D01*
X4726076Y-16734314D02*
X4735600Y-16715267D01*
X4754648Y-16705743D01*
X4783219Y-16705743D01*
X4802267Y-16715267D01*
X4811790Y-16734314D01*
X4811790Y-16839076D01*
X4907029Y-16839076D02*
X4907029Y-16705743D01*
X4907029Y-16724790D02*
X4916552Y-16715267D01*
X4935600Y-16705743D01*
X4964171Y-16705743D01*
X4983219Y-16715267D01*
X4992743Y-16734314D01*
X4992743Y-16839076D01*
X4992743Y-16734314D02*
X5002267Y-16715267D01*
X5021314Y-16705743D01*
X5049886Y-16705743D01*
X5068933Y-16715267D01*
X5078457Y-16734314D01*
X5078457Y-16839076D01*
X5468933Y-16629552D02*
X5297505Y-16886695D01*
X5726076Y-16639076D02*
X5745124Y-16639076D01*
X5764171Y-16648600D01*
X5773695Y-16658124D01*
X5783219Y-16677171D01*
X5792743Y-16715267D01*
X5792743Y-16762886D01*
X5783219Y-16800981D01*
X5773695Y-16820029D01*
X5764171Y-16829552D01*
X5745124Y-16839076D01*
X5726076Y-16839076D01*
X5707028Y-16829552D01*
X5697505Y-16820029D01*
X5687981Y-16800981D01*
X5678457Y-16762886D01*
X5678457Y-16715267D01*
X5687981Y-16677171D01*
X5697505Y-16658124D01*
X5707028Y-16648600D01*
X5726076Y-16639076D01*
X5878457Y-16820029D02*
X5887981Y-16829552D01*
X5878457Y-16839076D01*
X5868933Y-16829552D01*
X5878457Y-16820029D01*
X5878457Y-16839076D01*
X6011790Y-16639076D02*
X6030838Y-16639076D01*
X6049886Y-16648600D01*
X6059409Y-16658124D01*
X6068933Y-16677171D01*
X6078457Y-16715267D01*
X6078457Y-16762886D01*
X6068933Y-16800981D01*
X6059409Y-16820029D01*
X6049886Y-16829552D01*
X6030838Y-16839076D01*
X6011790Y-16839076D01*
X5992743Y-16829552D01*
X5983219Y-16820029D01*
X5973695Y-16800981D01*
X5964171Y-16762886D01*
X5964171Y-16715267D01*
X5973695Y-16677171D01*
X5983219Y-16658124D01*
X5992743Y-16648600D01*
X6011790Y-16639076D01*
X6173695Y-16839076D02*
X6211790Y-16839076D01*
X6230838Y-16829552D01*
X6240362Y-16820029D01*
X6259409Y-16791457D01*
X6268933Y-16753362D01*
X6268933Y-16677171D01*
X6259409Y-16658124D01*
X6249886Y-16648600D01*
X6230838Y-16639076D01*
X6192743Y-16639076D01*
X6173695Y-16648600D01*
X6164171Y-16658124D01*
X6154648Y-16677171D01*
X6154648Y-16724790D01*
X6164171Y-16743838D01*
X6173695Y-16753362D01*
X6192743Y-16762886D01*
X6230838Y-16762886D01*
X6249886Y-16753362D01*
X6259409Y-16743838D01*
X6268933Y-16724790D01*
X6383219Y-16724790D02*
X6364171Y-16715267D01*
X6354648Y-16705743D01*
X6345124Y-16686695D01*
X6345124Y-16677171D01*
X6354648Y-16658124D01*
X6364171Y-16648600D01*
X6383219Y-16639076D01*
X6421314Y-16639076D01*
X6440362Y-16648600D01*
X6449886Y-16658124D01*
X6459409Y-16677171D01*
X6459409Y-16686695D01*
X6449886Y-16705743D01*
X6440362Y-16715267D01*
X6421314Y-16724790D01*
X6383219Y-16724790D01*
X6364171Y-16734314D01*
X6354648Y-16743838D01*
X6345124Y-16762886D01*
X6345124Y-16800981D01*
X6354648Y-16820029D01*
X6364171Y-16829552D01*
X6383219Y-16839076D01*
X6421314Y-16839076D01*
X6440362Y-16829552D01*
X6449886Y-16820029D01*
X6459409Y-16800981D01*
X6459409Y-16762886D01*
X6449886Y-16743838D01*
X6440362Y-16734314D01*
X6421314Y-16724790D01*
X6630838Y-16705743D02*
X6630838Y-16839076D01*
X6583219Y-16629552D02*
X6535600Y-16772409D01*
X6659409Y-16772409D01*
X6726076Y-16639076D02*
X6726076Y-16677171D01*
X6802267Y-16639076D02*
X6802267Y-16677171D01*
X7097505Y-16915267D02*
X7087981Y-16905743D01*
X7068933Y-16877171D01*
X7059409Y-16858124D01*
X7049886Y-16829552D01*
X7040362Y-16781933D01*
X7040362Y-16743838D01*
X7049886Y-16696219D01*
X7059409Y-16667648D01*
X7068933Y-16648600D01*
X7087981Y-16620028D01*
X7097505Y-16610505D01*
X7259409Y-16705743D02*
X7259409Y-16839076D01*
X7211790Y-16629552D02*
X7164171Y-16772409D01*
X7287981Y-16772409D01*
X7516552Y-16839076D02*
X7516552Y-16639076D01*
X7602267Y-16839076D02*
X7602267Y-16734314D01*
X7592743Y-16715267D01*
X7573695Y-16705743D01*
X7545124Y-16705743D01*
X7526076Y-16715267D01*
X7516552Y-16724790D01*
X7726076Y-16839076D02*
X7707028Y-16829552D01*
X7697505Y-16820029D01*
X7687981Y-16800981D01*
X7687981Y-16743838D01*
X7697505Y-16724790D01*
X7707028Y-16715267D01*
X7726076Y-16705743D01*
X7754648Y-16705743D01*
X7773695Y-16715267D01*
X7783219Y-16724790D01*
X7792743Y-16743838D01*
X7792743Y-16800981D01*
X7783219Y-16820029D01*
X7773695Y-16829552D01*
X7754648Y-16839076D01*
X7726076Y-16839076D01*
X7907028Y-16839076D02*
X7887981Y-16829552D01*
X7878457Y-16810505D01*
X7878457Y-16639076D01*
X8059409Y-16829552D02*
X8040362Y-16839076D01*
X8002267Y-16839076D01*
X7983219Y-16829552D01*
X7973695Y-16810505D01*
X7973695Y-16734314D01*
X7983219Y-16715267D01*
X8002267Y-16705743D01*
X8040362Y-16705743D01*
X8059409Y-16715267D01*
X8068933Y-16734314D01*
X8068933Y-16753362D01*
X7973695Y-16772409D01*
X8145124Y-16829552D02*
X8164171Y-16839076D01*
X8202267Y-16839076D01*
X8221314Y-16829552D01*
X8230838Y-16810505D01*
X8230838Y-16800981D01*
X8221314Y-16781933D01*
X8202267Y-16772409D01*
X8173695Y-16772409D01*
X8154648Y-16762886D01*
X8145124Y-16743838D01*
X8145124Y-16734314D01*
X8154648Y-16715267D01*
X8173695Y-16705743D01*
X8202267Y-16705743D01*
X8221314Y-16715267D01*
X8297505Y-16915267D02*
X8307028Y-16905743D01*
X8326076Y-16877171D01*
X8335600Y-16858124D01*
X8345124Y-16829552D01*
X8354648Y-16781933D01*
X8354648Y-16743838D01*
X8345124Y-16696219D01*
X8335600Y-16667648D01*
X8326076Y-16648600D01*
X8307028Y-16620028D01*
X8297505Y-16610505D01*
X8659410Y-16915267D02*
X8649886Y-16905743D01*
X8630838Y-16877171D01*
X8621314Y-16858124D01*
X8611790Y-16829552D01*
X8602267Y-16781933D01*
X8602267Y-16743838D01*
X8611790Y-16696219D01*
X8621314Y-16667648D01*
X8630838Y-16648600D01*
X8649886Y-16620028D01*
X8659410Y-16610505D01*
X8735600Y-16705743D02*
X8735600Y-16839076D01*
X8735600Y-16724790D02*
X8745124Y-16715267D01*
X8764171Y-16705743D01*
X8792743Y-16705743D01*
X8811790Y-16715267D01*
X8821314Y-16734314D01*
X8821314Y-16839076D01*
X8945124Y-16839076D02*
X8926076Y-16829552D01*
X8916552Y-16820029D01*
X8907029Y-16800981D01*
X8907029Y-16743838D01*
X8916552Y-16724790D01*
X8926076Y-16715267D01*
X8945124Y-16705743D01*
X8973695Y-16705743D01*
X8992743Y-16715267D01*
X9002267Y-16724790D01*
X9011790Y-16743838D01*
X9011790Y-16800981D01*
X9002267Y-16820029D01*
X8992743Y-16829552D01*
X8973695Y-16839076D01*
X8945124Y-16839076D01*
X9068933Y-16705743D02*
X9145124Y-16705743D01*
X9097505Y-16639076D02*
X9097505Y-16810505D01*
X9107029Y-16829552D01*
X9126076Y-16839076D01*
X9145124Y-16839076D01*
X9364171Y-16705743D02*
X9364171Y-16905743D01*
X9364171Y-16715267D02*
X9383219Y-16705743D01*
X9421314Y-16705743D01*
X9440362Y-16715267D01*
X9449886Y-16724790D01*
X9459410Y-16743838D01*
X9459410Y-16800981D01*
X9449886Y-16820029D01*
X9440362Y-16829552D01*
X9421314Y-16839076D01*
X9383219Y-16839076D01*
X9364171Y-16829552D01*
X9573695Y-16839076D02*
X9554648Y-16829552D01*
X9545124Y-16810505D01*
X9545124Y-16639076D01*
X9735600Y-16839076D02*
X9735600Y-16734314D01*
X9726076Y-16715267D01*
X9707029Y-16705743D01*
X9668933Y-16705743D01*
X9649886Y-16715267D01*
X9735600Y-16829552D02*
X9716552Y-16839076D01*
X9668933Y-16839076D01*
X9649886Y-16829552D01*
X9640362Y-16810505D01*
X9640362Y-16791457D01*
X9649886Y-16772409D01*
X9668933Y-16762886D01*
X9716552Y-16762886D01*
X9735600Y-16753362D01*
X9802267Y-16705743D02*
X9878457Y-16705743D01*
X9830838Y-16639076D02*
X9830838Y-16810505D01*
X9840362Y-16829552D01*
X9859410Y-16839076D01*
X9878457Y-16839076D01*
X10021314Y-16829552D02*
X10002267Y-16839076D01*
X9964171Y-16839076D01*
X9945124Y-16829552D01*
X9935600Y-16810505D01*
X9935600Y-16734314D01*
X9945124Y-16715267D01*
X9964171Y-16705743D01*
X10002267Y-16705743D01*
X10021314Y-16715267D01*
X10030838Y-16734314D01*
X10030838Y-16753362D01*
X9935600Y-16772409D01*
X10202267Y-16839076D02*
X10202267Y-16639076D01*
X10202267Y-16829552D02*
X10183219Y-16839076D01*
X10145124Y-16839076D01*
X10126076Y-16829552D01*
X10116552Y-16820029D01*
X10107029Y-16800981D01*
X10107029Y-16743838D01*
X10116552Y-16724790D01*
X10126076Y-16715267D01*
X10145124Y-16705743D01*
X10183219Y-16705743D01*
X10202267Y-16715267D01*
X10278457Y-16915267D02*
X10287981Y-16905743D01*
X10307029Y-16877171D01*
X10316552Y-16858124D01*
X10326076Y-16829552D01*
X10335600Y-16781933D01*
X10335600Y-16743838D01*
X10326076Y-16696219D01*
X10316552Y-16667648D01*
X10307029Y-16648600D01*
X10287981Y-16620028D01*
X10278457Y-16610505D01*
X3525600Y-17068600D02*
G75*
G03*
X3525600Y-17068600I-100000J0D01*
G01*
X3773695Y-16978124D02*
X3783219Y-16968600D01*
X3802267Y-16959076D01*
X3849886Y-16959076D01*
X3868933Y-16968600D01*
X3878457Y-16978124D01*
X3887981Y-16997171D01*
X3887981Y-17016219D01*
X3878457Y-17044790D01*
X3764171Y-17159076D01*
X3887981Y-17159076D01*
X3973695Y-17140029D02*
X3983219Y-17149552D01*
X3973695Y-17159076D01*
X3964171Y-17149552D01*
X3973695Y-17140029D01*
X3973695Y-17159076D01*
X4049886Y-16959076D02*
X4183219Y-16959076D01*
X4097505Y-17159076D01*
X4354648Y-16959076D02*
X4259410Y-16959076D01*
X4249886Y-17054314D01*
X4259410Y-17044790D01*
X4278457Y-17035267D01*
X4326076Y-17035267D01*
X4345124Y-17044790D01*
X4354648Y-17054314D01*
X4364171Y-17073362D01*
X4364171Y-17120981D01*
X4354648Y-17140029D01*
X4345124Y-17149552D01*
X4326076Y-17159076D01*
X4278457Y-17159076D01*
X4259410Y-17149552D01*
X4249886Y-17140029D01*
X4487981Y-16959076D02*
X4507029Y-16959076D01*
X4526076Y-16968600D01*
X4535600Y-16978124D01*
X4545124Y-16997171D01*
X4554648Y-17035267D01*
X4554648Y-17082886D01*
X4545124Y-17120981D01*
X4535600Y-17140029D01*
X4526076Y-17149552D01*
X4507029Y-17159076D01*
X4487981Y-17159076D01*
X4468933Y-17149552D01*
X4459410Y-17140029D01*
X4449886Y-17120981D01*
X4440362Y-17082886D01*
X4440362Y-17035267D01*
X4449886Y-16997171D01*
X4459410Y-16978124D01*
X4468933Y-16968600D01*
X4487981Y-16959076D01*
X4640362Y-17159076D02*
X4640362Y-17025743D01*
X4640362Y-17044790D02*
X4649886Y-17035267D01*
X4668933Y-17025743D01*
X4697505Y-17025743D01*
X4716552Y-17035267D01*
X4726076Y-17054314D01*
X4726076Y-17159076D01*
X4726076Y-17054314D02*
X4735600Y-17035267D01*
X4754648Y-17025743D01*
X4783219Y-17025743D01*
X4802267Y-17035267D01*
X4811790Y-17054314D01*
X4811790Y-17159076D01*
X4907029Y-17159076D02*
X4907029Y-17025743D01*
X4907029Y-17044790D02*
X4916552Y-17035267D01*
X4935600Y-17025743D01*
X4964171Y-17025743D01*
X4983219Y-17035267D01*
X4992743Y-17054314D01*
X4992743Y-17159076D01*
X4992743Y-17054314D02*
X5002267Y-17035267D01*
X5021314Y-17025743D01*
X5049886Y-17025743D01*
X5068933Y-17035267D01*
X5078457Y-17054314D01*
X5078457Y-17159076D01*
X5468933Y-16949552D02*
X5297505Y-17206695D01*
X5726076Y-16959076D02*
X5745124Y-16959076D01*
X5764171Y-16968600D01*
X5773695Y-16978124D01*
X5783219Y-16997171D01*
X5792743Y-17035267D01*
X5792743Y-17082886D01*
X5783219Y-17120981D01*
X5773695Y-17140029D01*
X5764171Y-17149552D01*
X5745124Y-17159076D01*
X5726076Y-17159076D01*
X5707028Y-17149552D01*
X5697505Y-17140029D01*
X5687981Y-17120981D01*
X5678457Y-17082886D01*
X5678457Y-17035267D01*
X5687981Y-16997171D01*
X5697505Y-16978124D01*
X5707028Y-16968600D01*
X5726076Y-16959076D01*
X5878457Y-17140029D02*
X5887981Y-17149552D01*
X5878457Y-17159076D01*
X5868933Y-17149552D01*
X5878457Y-17140029D01*
X5878457Y-17159076D01*
X6078457Y-17159076D02*
X5964171Y-17159076D01*
X6021314Y-17159076D02*
X6021314Y-16959076D01*
X6002267Y-16987648D01*
X5983219Y-17006695D01*
X5964171Y-17016219D01*
X6202267Y-16959076D02*
X6221314Y-16959076D01*
X6240362Y-16968600D01*
X6249886Y-16978124D01*
X6259409Y-16997171D01*
X6268933Y-17035267D01*
X6268933Y-17082886D01*
X6259409Y-17120981D01*
X6249886Y-17140029D01*
X6240362Y-17149552D01*
X6221314Y-17159076D01*
X6202267Y-17159076D01*
X6183219Y-17149552D01*
X6173695Y-17140029D01*
X6164171Y-17120981D01*
X6154648Y-17082886D01*
X6154648Y-17035267D01*
X6164171Y-16997171D01*
X6173695Y-16978124D01*
X6183219Y-16968600D01*
X6202267Y-16959076D01*
X6383219Y-17044790D02*
X6364171Y-17035267D01*
X6354648Y-17025743D01*
X6345124Y-17006695D01*
X6345124Y-16997171D01*
X6354648Y-16978124D01*
X6364171Y-16968600D01*
X6383219Y-16959076D01*
X6421314Y-16959076D01*
X6440362Y-16968600D01*
X6449886Y-16978124D01*
X6459409Y-16997171D01*
X6459409Y-17006695D01*
X6449886Y-17025743D01*
X6440362Y-17035267D01*
X6421314Y-17044790D01*
X6383219Y-17044790D01*
X6364171Y-17054314D01*
X6354648Y-17063838D01*
X6345124Y-17082886D01*
X6345124Y-17120981D01*
X6354648Y-17140029D01*
X6364171Y-17149552D01*
X6383219Y-17159076D01*
X6421314Y-17159076D01*
X6440362Y-17149552D01*
X6449886Y-17140029D01*
X6459409Y-17120981D01*
X6459409Y-17082886D01*
X6449886Y-17063838D01*
X6440362Y-17054314D01*
X6421314Y-17044790D01*
X6526076Y-16959076D02*
X6649886Y-16959076D01*
X6583219Y-17035267D01*
X6611790Y-17035267D01*
X6630838Y-17044790D01*
X6640362Y-17054314D01*
X6649886Y-17073362D01*
X6649886Y-17120981D01*
X6640362Y-17140029D01*
X6630838Y-17149552D01*
X6611790Y-17159076D01*
X6554648Y-17159076D01*
X6535600Y-17149552D01*
X6526076Y-17140029D01*
X6726076Y-16959076D02*
X6726076Y-16997171D01*
X6802267Y-16959076D02*
X6802267Y-16997171D01*
X7097505Y-17235267D02*
X7087981Y-17225743D01*
X7068933Y-17197171D01*
X7059409Y-17178124D01*
X7049886Y-17149552D01*
X7040362Y-17101933D01*
X7040362Y-17063838D01*
X7049886Y-17016219D01*
X7059409Y-16987648D01*
X7068933Y-16968600D01*
X7087981Y-16940029D01*
X7097505Y-16930505D01*
X7259409Y-17025743D02*
X7259409Y-17159076D01*
X7211790Y-16949552D02*
X7164171Y-17092410D01*
X7287981Y-17092410D01*
X7516552Y-17159076D02*
X7516552Y-16959076D01*
X7602267Y-17159076D02*
X7602267Y-17054314D01*
X7592743Y-17035267D01*
X7573695Y-17025743D01*
X7545124Y-17025743D01*
X7526076Y-17035267D01*
X7516552Y-17044790D01*
X7726076Y-17159076D02*
X7707028Y-17149552D01*
X7697505Y-17140029D01*
X7687981Y-17120981D01*
X7687981Y-17063838D01*
X7697505Y-17044790D01*
X7707028Y-17035267D01*
X7726076Y-17025743D01*
X7754648Y-17025743D01*
X7773695Y-17035267D01*
X7783219Y-17044790D01*
X7792743Y-17063838D01*
X7792743Y-17120981D01*
X7783219Y-17140029D01*
X7773695Y-17149552D01*
X7754648Y-17159076D01*
X7726076Y-17159076D01*
X7907028Y-17159076D02*
X7887981Y-17149552D01*
X7878457Y-17130505D01*
X7878457Y-16959076D01*
X8059409Y-17149552D02*
X8040362Y-17159076D01*
X8002267Y-17159076D01*
X7983219Y-17149552D01*
X7973695Y-17130505D01*
X7973695Y-17054314D01*
X7983219Y-17035267D01*
X8002267Y-17025743D01*
X8040362Y-17025743D01*
X8059409Y-17035267D01*
X8068933Y-17054314D01*
X8068933Y-17073362D01*
X7973695Y-17092410D01*
X8145124Y-17149552D02*
X8164171Y-17159076D01*
X8202267Y-17159076D01*
X8221314Y-17149552D01*
X8230838Y-17130505D01*
X8230838Y-17120981D01*
X8221314Y-17101933D01*
X8202267Y-17092410D01*
X8173695Y-17092410D01*
X8154648Y-17082886D01*
X8145124Y-17063838D01*
X8145124Y-17054314D01*
X8154648Y-17035267D01*
X8173695Y-17025743D01*
X8202267Y-17025743D01*
X8221314Y-17035267D01*
X8297505Y-17235267D02*
X8307028Y-17225743D01*
X8326076Y-17197171D01*
X8335600Y-17178124D01*
X8345124Y-17149552D01*
X8354648Y-17101933D01*
X8354648Y-17063838D01*
X8345124Y-17016219D01*
X8335600Y-16987648D01*
X8326076Y-16968600D01*
X8307028Y-16940029D01*
X8297505Y-16930505D01*
X8659410Y-17235267D02*
X8649886Y-17225743D01*
X8630838Y-17197171D01*
X8621314Y-17178124D01*
X8611790Y-17149552D01*
X8602267Y-17101933D01*
X8602267Y-17063838D01*
X8611790Y-17016219D01*
X8621314Y-16987648D01*
X8630838Y-16968600D01*
X8649886Y-16940029D01*
X8659410Y-16930505D01*
X8735600Y-17025743D02*
X8735600Y-17159076D01*
X8735600Y-17044790D02*
X8745124Y-17035267D01*
X8764171Y-17025743D01*
X8792743Y-17025743D01*
X8811790Y-17035267D01*
X8821314Y-17054314D01*
X8821314Y-17159076D01*
X8945124Y-17159076D02*
X8926076Y-17149552D01*
X8916552Y-17140029D01*
X8907029Y-17120981D01*
X8907029Y-17063838D01*
X8916552Y-17044790D01*
X8926076Y-17035267D01*
X8945124Y-17025743D01*
X8973695Y-17025743D01*
X8992743Y-17035267D01*
X9002267Y-17044790D01*
X9011790Y-17063838D01*
X9011790Y-17120981D01*
X9002267Y-17140029D01*
X8992743Y-17149552D01*
X8973695Y-17159076D01*
X8945124Y-17159076D01*
X9068933Y-17025743D02*
X9145124Y-17025743D01*
X9097505Y-16959076D02*
X9097505Y-17130505D01*
X9107029Y-17149552D01*
X9126076Y-17159076D01*
X9145124Y-17159076D01*
X9364171Y-17025743D02*
X9364171Y-17225743D01*
X9364171Y-17035267D02*
X9383219Y-17025743D01*
X9421314Y-17025743D01*
X9440362Y-17035267D01*
X9449886Y-17044790D01*
X9459410Y-17063838D01*
X9459410Y-17120981D01*
X9449886Y-17140029D01*
X9440362Y-17149552D01*
X9421314Y-17159076D01*
X9383219Y-17159076D01*
X9364171Y-17149552D01*
X9573695Y-17159076D02*
X9554648Y-17149552D01*
X9545124Y-17130505D01*
X9545124Y-16959076D01*
X9735600Y-17159076D02*
X9735600Y-17054314D01*
X9726076Y-17035267D01*
X9707029Y-17025743D01*
X9668933Y-17025743D01*
X9649886Y-17035267D01*
X9735600Y-17149552D02*
X9716552Y-17159076D01*
X9668933Y-17159076D01*
X9649886Y-17149552D01*
X9640362Y-17130505D01*
X9640362Y-17111457D01*
X9649886Y-17092410D01*
X9668933Y-17082886D01*
X9716552Y-17082886D01*
X9735600Y-17073362D01*
X9802267Y-17025743D02*
X9878457Y-17025743D01*
X9830838Y-16959076D02*
X9830838Y-17130505D01*
X9840362Y-17149552D01*
X9859410Y-17159076D01*
X9878457Y-17159076D01*
X10021314Y-17149552D02*
X10002267Y-17159076D01*
X9964171Y-17159076D01*
X9945124Y-17149552D01*
X9935600Y-17130505D01*
X9935600Y-17054314D01*
X9945124Y-17035267D01*
X9964171Y-17025743D01*
X10002267Y-17025743D01*
X10021314Y-17035267D01*
X10030838Y-17054314D01*
X10030838Y-17073362D01*
X9935600Y-17092410D01*
X10202267Y-17159076D02*
X10202267Y-16959076D01*
X10202267Y-17149552D02*
X10183219Y-17159076D01*
X10145124Y-17159076D01*
X10126076Y-17149552D01*
X10116552Y-17140029D01*
X10107029Y-17120981D01*
X10107029Y-17063838D01*
X10116552Y-17044790D01*
X10126076Y-17035267D01*
X10145124Y-17025743D01*
X10183219Y-17025743D01*
X10202267Y-17035267D01*
X10278457Y-17235267D02*
X10287981Y-17225743D01*
X10307029Y-17197171D01*
X10316552Y-17178124D01*
X10326076Y-17149552D01*
X10335600Y-17101933D01*
X10335600Y-17063838D01*
X10326076Y-17016219D01*
X10316552Y-16987648D01*
X10307029Y-16968600D01*
X10287981Y-16940029D01*
X10278457Y-16930505D01*
X3425600Y-17288600D02*
X3425600Y-17488600D01*
X3325600Y-17388600D02*
X3525600Y-17388600D01*
X3764171Y-17279076D02*
X3887981Y-17279076D01*
X3821314Y-17355267D01*
X3849886Y-17355267D01*
X3868933Y-17364790D01*
X3878457Y-17374314D01*
X3887981Y-17393362D01*
X3887981Y-17440981D01*
X3878457Y-17460029D01*
X3868933Y-17469552D01*
X3849886Y-17479076D01*
X3792743Y-17479076D01*
X3773695Y-17469552D01*
X3764171Y-17460029D01*
X3973695Y-17460029D02*
X3983219Y-17469552D01*
X3973695Y-17479076D01*
X3964171Y-17469552D01*
X3973695Y-17460029D01*
X3973695Y-17479076D01*
X4049886Y-17279076D02*
X4173695Y-17279076D01*
X4107028Y-17355267D01*
X4135600Y-17355267D01*
X4154648Y-17364790D01*
X4164171Y-17374314D01*
X4173695Y-17393362D01*
X4173695Y-17440981D01*
X4164171Y-17460029D01*
X4154648Y-17469552D01*
X4135600Y-17479076D01*
X4078457Y-17479076D01*
X4059409Y-17469552D01*
X4049886Y-17460029D01*
X4297505Y-17279076D02*
X4316552Y-17279076D01*
X4335600Y-17288600D01*
X4345124Y-17298124D01*
X4354648Y-17317171D01*
X4364171Y-17355267D01*
X4364171Y-17402886D01*
X4354648Y-17440981D01*
X4345124Y-17460029D01*
X4335600Y-17469552D01*
X4316552Y-17479076D01*
X4297505Y-17479076D01*
X4278457Y-17469552D01*
X4268933Y-17460029D01*
X4259410Y-17440981D01*
X4249886Y-17402886D01*
X4249886Y-17355267D01*
X4259410Y-17317171D01*
X4268933Y-17298124D01*
X4278457Y-17288600D01*
X4297505Y-17279076D01*
X4440362Y-17298124D02*
X4449886Y-17288600D01*
X4468933Y-17279076D01*
X4516552Y-17279076D01*
X4535600Y-17288600D01*
X4545124Y-17298124D01*
X4554648Y-17317171D01*
X4554648Y-17336219D01*
X4545124Y-17364790D01*
X4430838Y-17479076D01*
X4554648Y-17479076D01*
X4640362Y-17479076D02*
X4640362Y-17345743D01*
X4640362Y-17364790D02*
X4649886Y-17355267D01*
X4668933Y-17345743D01*
X4697505Y-17345743D01*
X4716552Y-17355267D01*
X4726076Y-17374314D01*
X4726076Y-17479076D01*
X4726076Y-17374314D02*
X4735600Y-17355267D01*
X4754648Y-17345743D01*
X4783219Y-17345743D01*
X4802267Y-17355267D01*
X4811790Y-17374314D01*
X4811790Y-17479076D01*
X4907029Y-17479076D02*
X4907029Y-17345743D01*
X4907029Y-17364790D02*
X4916552Y-17355267D01*
X4935600Y-17345743D01*
X4964171Y-17345743D01*
X4983219Y-17355267D01*
X4992743Y-17374314D01*
X4992743Y-17479076D01*
X4992743Y-17374314D02*
X5002267Y-17355267D01*
X5021314Y-17345743D01*
X5049886Y-17345743D01*
X5068933Y-17355267D01*
X5078457Y-17374314D01*
X5078457Y-17479076D01*
X5468933Y-17269552D02*
X5297505Y-17526695D01*
X5726076Y-17279076D02*
X5745124Y-17279076D01*
X5764171Y-17288600D01*
X5773695Y-17298124D01*
X5783219Y-17317171D01*
X5792743Y-17355267D01*
X5792743Y-17402886D01*
X5783219Y-17440981D01*
X5773695Y-17460029D01*
X5764171Y-17469552D01*
X5745124Y-17479076D01*
X5726076Y-17479076D01*
X5707028Y-17469552D01*
X5697505Y-17460029D01*
X5687981Y-17440981D01*
X5678457Y-17402886D01*
X5678457Y-17355267D01*
X5687981Y-17317171D01*
X5697505Y-17298124D01*
X5707028Y-17288600D01*
X5726076Y-17279076D01*
X5878457Y-17460029D02*
X5887981Y-17469552D01*
X5878457Y-17479076D01*
X5868933Y-17469552D01*
X5878457Y-17460029D01*
X5878457Y-17479076D01*
X6078457Y-17479076D02*
X5964171Y-17479076D01*
X6021314Y-17479076D02*
X6021314Y-17279076D01*
X6002267Y-17307648D01*
X5983219Y-17326695D01*
X5964171Y-17336219D01*
X6145124Y-17279076D02*
X6268933Y-17279076D01*
X6202267Y-17355267D01*
X6230838Y-17355267D01*
X6249886Y-17364790D01*
X6259409Y-17374314D01*
X6268933Y-17393362D01*
X6268933Y-17440981D01*
X6259409Y-17460029D01*
X6249886Y-17469552D01*
X6230838Y-17479076D01*
X6173695Y-17479076D01*
X6154648Y-17469552D01*
X6145124Y-17460029D01*
X6392743Y-17279076D02*
X6411790Y-17279076D01*
X6430838Y-17288600D01*
X6440362Y-17298124D01*
X6449886Y-17317171D01*
X6459409Y-17355267D01*
X6459409Y-17402886D01*
X6449886Y-17440981D01*
X6440362Y-17460029D01*
X6430838Y-17469552D01*
X6411790Y-17479076D01*
X6392743Y-17479076D01*
X6373695Y-17469552D01*
X6364171Y-17460029D01*
X6354648Y-17440981D01*
X6345124Y-17402886D01*
X6345124Y-17355267D01*
X6354648Y-17317171D01*
X6364171Y-17298124D01*
X6373695Y-17288600D01*
X6392743Y-17279076D01*
X6583219Y-17279076D02*
X6602267Y-17279076D01*
X6621314Y-17288600D01*
X6630838Y-17298124D01*
X6640362Y-17317171D01*
X6649886Y-17355267D01*
X6649886Y-17402886D01*
X6640362Y-17440981D01*
X6630838Y-17460029D01*
X6621314Y-17469552D01*
X6602267Y-17479076D01*
X6583219Y-17479076D01*
X6564171Y-17469552D01*
X6554648Y-17460029D01*
X6545124Y-17440981D01*
X6535600Y-17402886D01*
X6535600Y-17355267D01*
X6545124Y-17317171D01*
X6554648Y-17298124D01*
X6564171Y-17288600D01*
X6583219Y-17279076D01*
X6726076Y-17279076D02*
X6726076Y-17317171D01*
X6802267Y-17279076D02*
X6802267Y-17317171D01*
X7097505Y-17555267D02*
X7087981Y-17545743D01*
X7068933Y-17517171D01*
X7059409Y-17498124D01*
X7049886Y-17469552D01*
X7040362Y-17421933D01*
X7040362Y-17383838D01*
X7049886Y-17336219D01*
X7059409Y-17307648D01*
X7068933Y-17288600D01*
X7087981Y-17260029D01*
X7097505Y-17250505D01*
X7202267Y-17364790D02*
X7183219Y-17355267D01*
X7173695Y-17345743D01*
X7164171Y-17326695D01*
X7164171Y-17317171D01*
X7173695Y-17298124D01*
X7183219Y-17288600D01*
X7202267Y-17279076D01*
X7240362Y-17279076D01*
X7259409Y-17288600D01*
X7268933Y-17298124D01*
X7278457Y-17317171D01*
X7278457Y-17326695D01*
X7268933Y-17345743D01*
X7259409Y-17355267D01*
X7240362Y-17364790D01*
X7202267Y-17364790D01*
X7183219Y-17374314D01*
X7173695Y-17383838D01*
X7164171Y-17402886D01*
X7164171Y-17440981D01*
X7173695Y-17460029D01*
X7183219Y-17469552D01*
X7202267Y-17479076D01*
X7240362Y-17479076D01*
X7259409Y-17469552D01*
X7268933Y-17460029D01*
X7278457Y-17440981D01*
X7278457Y-17402886D01*
X7268933Y-17383838D01*
X7259409Y-17374314D01*
X7240362Y-17364790D01*
X7516552Y-17479076D02*
X7516552Y-17279076D01*
X7602267Y-17479076D02*
X7602267Y-17374314D01*
X7592743Y-17355267D01*
X7573695Y-17345743D01*
X7545124Y-17345743D01*
X7526076Y-17355267D01*
X7516552Y-17364790D01*
X7726076Y-17479076D02*
X7707028Y-17469552D01*
X7697505Y-17460029D01*
X7687981Y-17440981D01*
X7687981Y-17383838D01*
X7697505Y-17364790D01*
X7707028Y-17355267D01*
X7726076Y-17345743D01*
X7754648Y-17345743D01*
X7773695Y-17355267D01*
X7783219Y-17364790D01*
X7792743Y-17383838D01*
X7792743Y-17440981D01*
X7783219Y-17460029D01*
X7773695Y-17469552D01*
X7754648Y-17479076D01*
X7726076Y-17479076D01*
X7907028Y-17479076D02*
X7887981Y-17469552D01*
X7878457Y-17450505D01*
X7878457Y-17279076D01*
X8059409Y-17469552D02*
X8040362Y-17479076D01*
X8002267Y-17479076D01*
X7983219Y-17469552D01*
X7973695Y-17450505D01*
X7973695Y-17374314D01*
X7983219Y-17355267D01*
X8002267Y-17345743D01*
X8040362Y-17345743D01*
X8059409Y-17355267D01*
X8068933Y-17374314D01*
X8068933Y-17393362D01*
X7973695Y-17412410D01*
X8145124Y-17469552D02*
X8164171Y-17479076D01*
X8202267Y-17479076D01*
X8221314Y-17469552D01*
X8230838Y-17450505D01*
X8230838Y-17440981D01*
X8221314Y-17421933D01*
X8202267Y-17412410D01*
X8173695Y-17412410D01*
X8154648Y-17402886D01*
X8145124Y-17383838D01*
X8145124Y-17374314D01*
X8154648Y-17355267D01*
X8173695Y-17345743D01*
X8202267Y-17345743D01*
X8221314Y-17355267D01*
X8297505Y-17555267D02*
X8307028Y-17545743D01*
X8326076Y-17517171D01*
X8335600Y-17498124D01*
X8345124Y-17469552D01*
X8354648Y-17421933D01*
X8354648Y-17383838D01*
X8345124Y-17336219D01*
X8335600Y-17307648D01*
X8326076Y-17288600D01*
X8307028Y-17260029D01*
X8297505Y-17250505D01*
X8659410Y-17555267D02*
X8649886Y-17545743D01*
X8630838Y-17517171D01*
X8621314Y-17498124D01*
X8611790Y-17469552D01*
X8602267Y-17421933D01*
X8602267Y-17383838D01*
X8611790Y-17336219D01*
X8621314Y-17307648D01*
X8630838Y-17288600D01*
X8649886Y-17260029D01*
X8659410Y-17250505D01*
X8735600Y-17345743D02*
X8735600Y-17479076D01*
X8735600Y-17364790D02*
X8745124Y-17355267D01*
X8764171Y-17345743D01*
X8792743Y-17345743D01*
X8811790Y-17355267D01*
X8821314Y-17374314D01*
X8821314Y-17479076D01*
X8945124Y-17479076D02*
X8926076Y-17469552D01*
X8916552Y-17460029D01*
X8907029Y-17440981D01*
X8907029Y-17383838D01*
X8916552Y-17364790D01*
X8926076Y-17355267D01*
X8945124Y-17345743D01*
X8973695Y-17345743D01*
X8992743Y-17355267D01*
X9002267Y-17364790D01*
X9011790Y-17383838D01*
X9011790Y-17440981D01*
X9002267Y-17460029D01*
X8992743Y-17469552D01*
X8973695Y-17479076D01*
X8945124Y-17479076D01*
X9068933Y-17345743D02*
X9145124Y-17345743D01*
X9097505Y-17279076D02*
X9097505Y-17450505D01*
X9107029Y-17469552D01*
X9126076Y-17479076D01*
X9145124Y-17479076D01*
X9364171Y-17345743D02*
X9364171Y-17545743D01*
X9364171Y-17355267D02*
X9383219Y-17345743D01*
X9421314Y-17345743D01*
X9440362Y-17355267D01*
X9449886Y-17364790D01*
X9459410Y-17383838D01*
X9459410Y-17440981D01*
X9449886Y-17460029D01*
X9440362Y-17469552D01*
X9421314Y-17479076D01*
X9383219Y-17479076D01*
X9364171Y-17469552D01*
X9573695Y-17479076D02*
X9554648Y-17469552D01*
X9545124Y-17450505D01*
X9545124Y-17279076D01*
X9735600Y-17479076D02*
X9735600Y-17374314D01*
X9726076Y-17355267D01*
X9707029Y-17345743D01*
X9668933Y-17345743D01*
X9649886Y-17355267D01*
X9735600Y-17469552D02*
X9716552Y-17479076D01*
X9668933Y-17479076D01*
X9649886Y-17469552D01*
X9640362Y-17450505D01*
X9640362Y-17431457D01*
X9649886Y-17412410D01*
X9668933Y-17402886D01*
X9716552Y-17402886D01*
X9735600Y-17393362D01*
X9802267Y-17345743D02*
X9878457Y-17345743D01*
X9830838Y-17279076D02*
X9830838Y-17450505D01*
X9840362Y-17469552D01*
X9859410Y-17479076D01*
X9878457Y-17479076D01*
X10021314Y-17469552D02*
X10002267Y-17479076D01*
X9964171Y-17479076D01*
X9945124Y-17469552D01*
X9935600Y-17450505D01*
X9935600Y-17374314D01*
X9945124Y-17355267D01*
X9964171Y-17345743D01*
X10002267Y-17345743D01*
X10021314Y-17355267D01*
X10030838Y-17374314D01*
X10030838Y-17393362D01*
X9935600Y-17412410D01*
X10202267Y-17479076D02*
X10202267Y-17279076D01*
X10202267Y-17469552D02*
X10183219Y-17479076D01*
X10145124Y-17479076D01*
X10126076Y-17469552D01*
X10116552Y-17460029D01*
X10107029Y-17440981D01*
X10107029Y-17383838D01*
X10116552Y-17364790D01*
X10126076Y-17355267D01*
X10145124Y-17345743D01*
X10183219Y-17345743D01*
X10202267Y-17355267D01*
X10278457Y-17555267D02*
X10287981Y-17545743D01*
X10307029Y-17517171D01*
X10316552Y-17498124D01*
X10326076Y-17469552D01*
X10335600Y-17421933D01*
X10335600Y-17383838D01*
X10326076Y-17336219D01*
X10316552Y-17307648D01*
X10307029Y-17288600D01*
X10287981Y-17260029D01*
X10278457Y-17250505D01*
M02*
